<svg xmlns="http://www.w3.org/2000/svg" viewBox="0 0 79.14 96"><defs><style>.cls-1{isolation:isolate;}.cls-2{fill:#fff;}.cls-3{opacity:0.49;}.cls-4{fill:#fbb983;}.cls-10,.cls-19,.cls-5{mix-blend-mode:multiply;}.cls-6{fill:#010101;}.cls-7{fill:#2da9e0;}.cls-8{fill:#1073bb;}.cls-9{fill:#f1efec;}.cls-10{opacity:0.38;}.cls-11{fill:#bfc0c2;}.cls-12{opacity:0.5;}.cls-13{fill:#45a78a;}.cls-14{fill:#f15b28;}.cls-15{opacity:0.7;}.cls-16{fill:#e9262a;}.cls-17{fill:none;stroke:#010101;stroke-linecap:round;stroke-linejoin:round;stroke-width:3px;}.cls-18{opacity:0.46;}.cls-19{opacity:0.55;}.cls-20{fill:#676868;}</style></defs><title>Photo_tipman</title><g class="cls-1"><g id="Layer_1" data-name="Layer 1"><path class="cls-2" d="M75.19,14.07c-.87-.41-1.29-.25-1.48.1l-.32.59-.78-.35.14-.9c.07-.48-.66-1-1.63-1.1h0c-1-.13-1.32.22-1.39.7l-.6-.07v0c.06-.57-.69-1.1-1.66-1.2a1.47,1.47,0,0,0-1,.18V5.74c0-1.13-.48-2.06-1.57-2.06a2.22,2.22,0,0,0-2.2,2.06V16.17l-2.62,1.51c-.44.41,1.47,5.39,1.47,5.39a22.72,22.72,0,0,0,2.76,4.49l0,0,.42,7.29c0,1.13,4.47-.33,4.47-.33,1.94,0,4.56-7.41,4.56-8.54l.88-7.17h0l1.83-3.38C76.63,15.11,76.07,14.48,75.19,14.07Z" transform="translate(-0.93)"/><g class="cls-3"><path class="cls-4" d="M74.52,14.55c-.6-.76-.62-.73-.81-.38l-.32.59-.78-.35-.4.15c-.68,2.53-1.44,1.7-1.06-1.54l0-.61c-1-.13-1.32.22-1.39.7l-.6-.07v0c-1.81,6-.69-1.1-1.66-1.2a1.47,1.47,0,0,0-1,.18l-1.06-1.39c0-1.13.21-6.1-.88-6.1s-1.84.12-1.84,1.25V16.17l-2.62,1.51c-.44.41,1.47,5.39,1.47,5.39a22.72,22.72,0,0,0,2.76,4.49l0,0,.42,7.29c0,1.13,4.47-.33,4.47-.33,1.94,0,4.56-7.41,4.56-8.54l.88-7.17h0l.53-2.56A2.65,2.65,0,0,0,74.52,14.55Z" transform="translate(-0.93)"/></g><path class="cls-4" d="M65.28,24.22a30.16,30.16,0,0,1-3.53-5.77,5.21,5.21,0,0,0,.41-1.95l-2.06,1.19c-.44.41,1.47,5.39,1.47,5.39a22.72,22.72,0,0,0,2.76,4.49l0,0,.09,1.64,2.11.43A6.32,6.32,0,0,0,65.28,24.22Z" transform="translate(-0.93)"/><path class="cls-4" d="M62.72,5.74V16.17l-.56.32h0L64.78,15a12.09,12.09,0,0,0-.63-1.83c-.32-.64-.32-4.33-.32-5.45s-.76-2.19-.2-3.58A2,2,0,0,0,62.72,5.74Z" transform="translate(-0.93)"/><path class="cls-4" d="M64.8,18.76l4.11,4.67s2.86-.5,3.25-1.14a10,10,0,0,1,1.95-1.74s.15-.76-2.31-1.72a24.47,24.47,0,0,0-5.59-1.26Z" transform="translate(-0.93)"/><g class="cls-5"><path class="cls-2" d="M64.92,18.67h0a2.14,2.14,0,0,1-2.2-2.06V5.74a2.22,2.22,0,0,1,2.2-2.06c1.09,0,1.57.93,1.57,2.06V16.61C66.49,17.74,66.13,18.67,64.92,18.67Z" transform="translate(-0.93)"/><path class="cls-6" d="M64.92,19.15a2.62,2.62,0,0,1-2.68-2.54V5.74A2.68,2.68,0,0,1,64.92,3.2c1.27,0,2.05,1,2.05,2.54V16.61C67,18.82,65.69,19.15,64.92,19.15Zm0-15A1.75,1.75,0,0,0,63.2,5.74V16.61a1.66,1.66,0,0,0,1.72,1.58c.54,0,1.09-.19,1.09-1.58V5.74C66,5.15,65.87,4.17,64.92,4.17Z" transform="translate(-0.93)"/><path class="cls-2" d="M75,15.29,73.73,26c0,1.13-2.62,8.54-4.56,8.54,0,0-4.47,1.47-4.47.33l-.42-7.29" transform="translate(-0.93)"/><path class="cls-6" d="M65.59,35.79a1.79,1.79,0,0,1-1-.23.81.81,0,0,1-.34-.67l-.42-7.26a.48.48,0,1,1,1-.06l.41,7.23A10.21,10.21,0,0,0,69,34.1l.07,0h.08c.44,0,1.38-.93,2.57-3.56A19.14,19.14,0,0,0,73.25,26V26l1.31-10.72a.48.48,0,0,1,1,.12L74.21,26c-.06,1.14-2.53,8.8-5,9A14,14,0,0,1,65.59,35.79Zm-.41-.93h0Z" transform="translate(-0.93)"/><path class="cls-2" d="M75.19,14.07h0c.87.41,1.44,1,1.25,1.39l-1.83,3.38c-.19.35-1.15.26-1.94-.11s-1-.82-.79-1.17l1.83-3.38C73.9,13.82,74.32,13.66,75.19,14.07Z" transform="translate(-0.93)"/><path class="cls-6" d="M74,19.54a3.92,3.92,0,0,1-1.55-.38,1.88,1.88,0,0,1-1.08-1,1,1,0,0,1,.07-.81l1.83-3.38c.21-.39.76-.95,2.11-.31h0A2.77,2.77,0,0,1,76.91,15a.84.84,0,0,1,0,.68L75,19.06A1.07,1.07,0,0,1,74,19.54Zm.32-5.23a.21.21,0,0,0-.2.09l-1.83,3.38a.06.06,0,0,0,0,.06s.1.23.58.45a2.38,2.38,0,0,0,1.34.27L76,15.28a2.19,2.19,0,0,0-1-.78A1.84,1.84,0,0,0,74.34,14.31Z" transform="translate(-0.93)"/><path class="cls-2" d="M71.12,12.4h0c1,.13,1.7.63,1.63,1.1L72,18.08c-.07.48-1,.75-1.9.63s-1.2-.56-1.13-1l.71-4.57C69.8,12.62,70.15,12.27,71.12,12.4Z" transform="translate(-0.93)"/><path class="cls-6" d="M70.58,19.21a3.74,3.74,0,0,1-.5,0,1.85,1.85,0,0,1-1.31-.65,1.21,1.21,0,0,1-.23-.93L69.25,13c.06-.4.37-1.31,1.93-1.1a2.76,2.76,0,0,1,1.83.89,1,1,0,0,1,.21.77l-.71,4.57C72.41,18.86,71.52,19.21,70.58,19.21Zm.15-6.36c-.48,0-.51.21-.53.32l-.71,4.57a.25.25,0,0,0,0,.21,1,1,0,0,0,.67.28A1.81,1.81,0,0,0,71.58,18l.7-4.55a1.7,1.7,0,0,0-1.22-.55Z" transform="translate(-0.93)"/><path class="cls-2" d="M67.47,11.8h0c1,.09,1.72.63,1.66,1.2l-.58,5.45c-.06.57-1,.95-1.88.87s-1.22-.58-1.16-1.15l.58-5.45C66.15,12.14,66.49,11.71,67.47,11.8Z" transform="translate(-0.93)"/><path class="cls-6" d="M66.9,19.8h-.28a1.8,1.8,0,0,1-1.29-.6A1.42,1.42,0,0,1,65,18.1l.58-5.45c0-.45.33-1.48,1.9-1.34a2.67,2.67,0,0,1,1.81.83,1.2,1.2,0,0,1,.29.89L69,18.49C68.94,19.31,67.91,19.8,66.9,19.8Zm.31-7.53c-.59,0-.62.29-.65.5L66,18.21a.48.48,0,0,0,.09.37.92.92,0,0,0,.63.25c.74.07,1.34-.25,1.36-.44l.58-5.45a.28.28,0,0,0-.08-.18,1.73,1.73,0,0,0-1.15-.48Z" transform="translate(-0.93)"/><path class="cls-2" d="M64.38,27.63a21.81,21.81,0,0,1-2.82-4.55s-1.91-5-1.47-5.39L64.78,15c.44-.41,1.59,0,2.36.7s.75,1.38.31,1.79L64.58,19l4.17,3.93" transform="translate(-0.93)"/><path class="cls-6" d="M64.38,28.11A.48.48,0,0,1,64,28a15.93,15.93,0,0,1-2.39-3.72c-.18-.34-.35-.66-.51-.95l0-.06c-2-5.28-1.57-5.71-1.35-5.91l.09-.07,4.65-2.68c.71-.59,2.08-.08,3,.75a2,2,0,0,1,.77,1.47,1.37,1.37,0,0,1-.46,1l0,0-2.33,1.2,3.68,3.46a.48.48,0,0,1-.66.7l-4.66-4.4,3.41-1.76a.4.4,0,0,0,.11-.28,1.21,1.21,0,0,0-.46-.77c-.71-.66-1.56-.84-1.7-.7L65,15.4,60.51,18A26.41,26.41,0,0,0,62,22.87c.16.28.32.6.5.94a15.37,15.37,0,0,0,2.22,3.48.48.48,0,0,1-.34.82Z" transform="translate(-0.93)"/></g><path class="cls-2" d="M25.76,55.18s-1.55-16.94.64-17.64,6.86-.31,7.7-.32l16.36-.11,6.2,1.5s16.56.46,16.47,1.82c-.43,6.31-.43,10.8-5.77,10.69a104.45,104.45,0,0,1-12.19-1L56,72.06l-30.88-.2Z" transform="translate(-0.93)"/><polygon class="cls-7" points="38.87 69.45 37.11 69.45 27.83 69.45 27.83 95 37.11 95 38.87 95 51.06 95 51.06 69.45 38.87 69.45"/><path class="cls-8" d="M38.6,69.4H28.79v5.26s5.56.84,5.56,4.8V95h6.39v-.67l4.78.67V79.45c0-4,6.45-4.8,6.45-4.8V69.4Z" transform="translate(-0.93)"/><path class="cls-6" d="M28.79,87.09a.48.48,0,0,1-.48-.48V74.88a.48.48,0,0,1,1,0V86.6A.48.48,0,0,1,28.79,87.09Z" transform="translate(-0.93)"/><path class="cls-6" d="M40.12,87.3a.48.48,0,0,1-.48-.48V75.38a.48.48,0,1,1,1,0V86.82A.48.48,0,0,1,40.12,87.3Z" transform="translate(-0.93)"/><path class="cls-6" d="M42.66,95.26h-5a23.82,23.82,0,0,1-.6-6.67,24.23,24.23,0,0,1,3.1-2.14S43,87.9,43,88.22A39.05,39.05,0,0,1,42.66,95.26Z" transform="translate(-0.93)"/><path class="cls-9" d="M39.52,95.38s0,0,0-.06c0-11.08-1.37-5.36-3.51-7a10,10,0,0,0-6.14-2.08,9.4,9.4,0,0,0-9.66,9.11s0,0,0,.06Z" transform="translate(-0.93)"/><path class="cls-6" d="M39.52,95.87H19.73v-.54a9.89,9.89,0,0,1,10.14-9.59,10.51,10.51,0,0,1,6.44,2.18c.45.35.81.25,1.34.05A1.4,1.4,0,0,1,39,88c.67.46,1,1.73,1,7.37l0,.51Zm-18.82-1H39c0-5.12-.38-6.06-.59-6.15a1.48,1.48,0,0,0-.47.13,2.12,2.12,0,0,1-2.26-.2,9.55,9.55,0,0,0-5.85-2A9,9,0,0,0,20.7,94.9Z" transform="translate(-0.93)"/><path class="cls-6" d="M39.44,92.36H22.88a.48.48,0,1,1,0-1H39.44a.48.48,0,1,1,0,1Z" transform="translate(-0.93)"/><g class="cls-10"><path class="cls-11" d="M39.31,95.38s0,0,0-.06c0-11.08-1.35-5.36-3.47-7-1.65-1.3-2.41.41-.68,1.87,5.88,5-5.71,4-14.94,5.16,0,0,0,0,0,.06Z" transform="translate(-0.93)"/><path class="cls-11" d="M37.76,93.08h-14a.48.48,0,1,1,0-1h14a.48.48,0,1,1,0,1Z" transform="translate(-0.93)"/></g><path class="cls-6" d="M29.54,89.4H23.46a.48.48,0,0,1,0-1h6.09a.48.48,0,1,1,0,1Z" transform="translate(-0.93)"/><path class="cls-6" d="M30.77,88.23H24.68a.48.48,0,0,1,0-1h6.09a.48.48,0,0,1,0,1Z" transform="translate(-0.93)"/><line class="cls-2" x1="41.67" y1="75.15" x2="36.99" y2="75.15"/><path class="cls-6" d="M42.6,75.63H37.91a.48.48,0,1,1,0-1H42.6a.48.48,0,1,1,0,1Z" transform="translate(-0.93)"/><path class="cls-9" d="M41.09,95.38s0,0,0-.06c0-11.08,1.37-5.36,3.51-7a10,10,0,0,1,6.14-2.08,9.4,9.4,0,0,1,9.66,9.11s0,0,0,.06Z" transform="translate(-0.93)"/><path class="cls-6" d="M60.4,95.87H40.62v-.47h0v0c0-5.63.34-6.9,1-7.37A1.4,1.4,0,0,1,43,88c.54.2.89.3,1.34-.05a10.51,10.51,0,0,1,6.44-2.18,9.89,9.89,0,0,1,10.14,9.59v0l0,.46Zm-18.83-1H59.91a9,9,0,0,0-9.16-8.2,9.55,9.55,0,0,0-5.85,2,2.12,2.12,0,0,1-2.26.2,1.49,1.49,0,0,0-.47-.13C42,88.85,41.59,89.79,41.57,94.9Z" transform="translate(-0.93)"/><path class="cls-6" d="M57.74,92.36H41.17a.48.48,0,0,1,0-1H57.74a.48.48,0,0,1,0,1Z" transform="translate(-0.93)"/><g class="cls-10"><path class="cls-11" d="M41.31,95.38s0,0,0-.06c0-11.08,1.35-5.36,3.47-7,1.65-1.3,2.41.41.68,1.87-5.88,5,5.71,4,14.94,5.16,0,0,0,0,0,.06Z" transform="translate(-0.93)"/><path class="cls-11" d="M56.88,93.08h-14a.48.48,0,1,1,0-1h14a.48.48,0,1,1,0,1Z" transform="translate(-0.93)"/></g><path class="cls-6" d="M57.16,89.4H51.07a.48.48,0,0,1,0-1h6.09a.48.48,0,0,1,0,1Z" transform="translate(-0.93)"/><path class="cls-6" d="M55.94,88.23H49.85a.48.48,0,1,1,0-1h6.09a.48.48,0,1,1,0,1Z" transform="translate(-0.93)"/><path class="cls-6" d="M51.83,84.2a.48.48,0,0,1-.48-.48V72a.48.48,0,0,1,1,0V83.72A.48.48,0,0,1,51.83,84.2Z" transform="translate(-0.93)"/><path class="cls-2" d="M61.46,41.08l.1-1,.13-1.28L62.78,28a.64.64,0,0,1,.7-.57l10.1,1a.64.64,0,0,1,.57.7s-1.62,16-1.89,18.74-4.79,3.28-4.79,3.28a7.4,7.4,0,0,1-1.28,0L64.15,51" transform="translate(-0.93)"/><path class="cls-6" d="M66.81,51.7c-.24,0-.47,0-.66,0l-2.05-.21a.48.48,0,1,1,.1-1l2.05.21a6.94,6.94,0,0,0,1.18,0s4.14-.48,4.37-2.85c.26-2.76,1.87-18.59,1.89-18.75a.16.16,0,0,0-.14-.18l-10.1-1a.16.16,0,0,0-.18.14L61.94,41.13a.48.48,0,1,1-1-.1L62.3,28a1.12,1.12,0,0,1,1.23-1l10.1,1a1.12,1.12,0,0,1,1,1.23c0,.16-1.63,16-1.89,18.74-.3,3.15-5,3.69-5.22,3.71A7.08,7.08,0,0,1,66.81,51.7Z" transform="translate(-0.93)"/><g class="cls-12"><path class="cls-13" d="M23.41,38.33s4.12.37,6.58.32c2.19,0,3.74-.21,4.06.52a9.06,9.06,0,0,0,2.11,3.25c1.28,1.22,5.69.83,6.34.4s2.78-.89,3.48-2.47.59-1.85.59-1.85l11.5,1.91s2.89.32,3.53-1.12c.52-1.18,1-12,1.28-12a44.85,44.85,0,0,1,8.82,1.28S68.49,38,71.21,43c.71,1.29,1.66,5.69-.16,7.06-2.57,1.92-15.88-1-15.88-1L56,72,36.08,66.51Z" transform="translate(-0.93)"/></g><path class="cls-13" d="M22.93,40.37s6.12.51,7.81-.05c2-.68,3.9-.32,4.22.27A3.45,3.45,0,0,0,36.4,42.5c1.28,1,5,.56,6,.64A2.44,2.44,0,0,0,45,41.81c.7-1.28.51-.91.51-.91l4.29,1.92,12.79.34,4.33,2.56a18.35,18.35,0,0,1,4.33,1.6c1.6,1.12,1.12,3.69-5.13,3.69-.7,0-10.54-1.36-10.91-.64-.65,1.28-.16,0-.16,2.57,0,.48-7.42,9.31-2.94,9.62,1.05.07,3.1,4.28,3.1,9.41l-12.35-.18c-.69,0,.7-2.21,0-2.22l-5.08-.11c-.7,0,.16,2.26-.53,2.25l-11.87-.16c-.62,0,.48-15.83.21-17-.16-.72-12.93.34-12.57-2.41C13.53,48,22.93,40.37,22.93,40.37Z" transform="translate(-0.93)"/><path class="cls-6" d="M58.8,39.31a14.27,14.27,0,0,1-4.28-.77,20.65,20.65,0,0,0-8-1h0a.48.48,0,0,1,0-1,21.5,21.5,0,0,1,8.33,1,12.53,12.53,0,0,0,4.53.72.48.48,0,0,1,0,1Z" transform="translate(-0.93)"/><path class="cls-2" d="M53.44,16.53a1.54,1.54,0,0,0-.07-.3,3.63,3.63,0,0,1-3.8.17,19.68,19.68,0,0,1-5-3.16,15.22,15.22,0,0,0-4.27-2.7,8.35,8.35,0,0,0-6.9.23,2.64,2.64,0,0,0-.59.75,10.57,10.57,0,0,1-3.61,3.43,6.3,6.3,0,0,1-1.3.6.7.7,0,0,0-.51.54,8.32,8.32,0,0,0-.49,2.9,10.06,10.06,0,0,0,.92,3.68c.07.16,0,1.11,1.36.59.4-.15.9.39,1,.85.25.91.31,1.35.59,2.26a19,19,0,0,0,3,5.94c.17.22.35.43.54.63,0,0-.08,3.45-.08,5s2.19,4.53,2.19,4.53l6.18-.08s3.69-.32,3.69-5S44.95,34,44.95,34a7.87,7.87,0,0,0,3-2.85,21.14,21.14,0,0,0,2-4.49c1.28-4,1-3.1,1.43-2.77s1-.45,1.22-.84a8,8,0,0,0,.83-3.32C53.5,18.64,53.44,17.58,53.44,16.53Z" transform="translate(-0.93)"/><g class="cls-5"><path class="cls-4" d="M38,19.49l-1.44,5.45a1.22,1.22,0,0,0,.72,1.76c1.36.56,3.85-1.2,3.85-1.2l-2.61-.32Z" transform="translate(-0.93)"/></g><g class="cls-5"><path class="cls-4" d="M53.62,20.21c-.05-1.71-.33-3.85-.33-3.85l-1.92.4-.1.53a27.24,27.24,0,0,1-4.06-2c-3.09-1.88-7.1-4.89-9.8-5a11.64,11.64,0,0,0-3.53.88,4.78,4.78,0,0,0-.8,1,10,10,0,0,1-3.57,3.25,6.25,6.25,0,0,1-1.36.4c-.3.1-.69,0-.76.24a8.32,8.32,0,0,0-.49,2.9,10.06,10.06,0,0,0,.92,3.68c.07.16,0,1.11,1.36.59.4-.15.9.39,1,.85.25.91.31,1.35.59,2.26a19,19,0,0,0,3,5.94c.17.22.35.43.54.63l-.08,4.88s1.16,4.13,2.19,4.61a3,3,0,0,0,2.19,0A10.38,10.38,0,0,1,38.09,39c0-.59,2.28-.4,3.34-1.12,8.25-5.62,2.36-2.81-.15-3.34-5.29-1.11-9.18-7-9.18-13.79a13.41,13.41,0,0,1,2.76-8.08,5.93,5.93,0,0,1,5.35.24c4.25,2.62,9.37,5.27,11,5.22l-.48,4.09a2.49,2.49,0,0,0,.7,1.23C52.5,24.59,53.67,21.92,53.62,20.21Z" transform="translate(-0.93)"/></g><path class="cls-14" d="M27.78,13.83c.17-1.33-.36-2.86-.14-4.18a13.07,13.07,0,0,1,.93-3,3,3,0,0,1,3.6-1.83c.41.12,1,1,1.21.74,1.64-2.51,3.47-3,7-3a24.94,24.94,0,0,0,7-.91c.7-.21,1.37-.48,2.07-.73l.11.17A35.8,35.8,0,0,1,52.6,8.35a12.48,12.48,0,0,1,.57,5.53c0,.07-.12,2.08-.21,2.64-1.21.72-2.73-.29-3.93-.68-1.77-.58-3-1.74-4.44-2.71-1.26-.83-2.83-2.17-4.38-2.63a9,9,0,0,0-6.34.3c-.18.07-.57.64-.68.77A9.63,9.63,0,0,1,30,14.63a7.2,7.2,0,0,1-1.26.54c-.29.08-.53-.07-.6.15C28,15.79,27.76,14,27.78,13.83Z" transform="translate(-0.93)"/><g class="cls-15"><path class="cls-16" d="M49.93,14c-1.77-.58-1.74-2.63-3.22-3.6-1.26-.83-2.83-2.17-4.38-2.63a9,9,0,0,0-6.34.3c-.18.07-1.85-3.81-2-3.67-.88,1.13-.63,5.74-2.07,6.45a7.14,7.14,0,0,1-1.24.58c-.29.08-.66-.84-.7-1A7,7,0,0,1,29.76,7a12.18,12.18,0,0,1,.55-2,3.13,3.13,0,0,0-1.74,1.72,13.07,13.07,0,0,0-.93,3c-.22,1.32.31,2.85.14,4.18,0,.14.2,2,.36,1.5.07-.22.31-.07.6-.15A7.2,7.2,0,0,0,30,14.63a9.63,9.63,0,0,0,3.19-3.07c.11-.14.5-.71.68-.77a9,9,0,0,1,6.34-.3c1.55.46,3.11,1.8,4.38,2.63,1.47,1,2.67,2.13,4.44,2.71,1.2.39,2.71,1.4,3.93.68.08-.51.19-2.3.21-2.6C52.47,13.71,50.55,14.23,49.93,14Z" transform="translate(-0.93)"/></g><rect class="cls-2" x="36.6" y="43.09" width="5.77" height="26.96"/><path class="cls-2" d="M26.78,17" transform="translate(-0.93)"/><path class="cls-17" d="M26.78,17" transform="translate(-0.93)"/><g class="cls-3"><path class="cls-4" d="M53.44,16.53a1.54,1.54,0,0,0-.07-.3c-1,1-2.91.36-4.17-.15a16.62,16.62,0,0,1-4.62-2.85,15.22,15.22,0,0,0-4.27-2.7,8.35,8.35,0,0,0-6.9.23,2.64,2.64,0,0,0-.59.75,10.57,10.57,0,0,1-3.61,3.43,6.3,6.3,0,0,1-1.3.6.7.7,0,0,0-.51.54,8.32,8.32,0,0,0-.49,2.9,10.06,10.06,0,0,0,.92,3.68c.07.16,0,1.11,1.36.59.4-.15.9.39,1,.85.25.91.31,1.35.59,2.26a19,19,0,0,0,3,5.94c.17.22.35.43.54.63,0,0-.08,3.45-.08,5,0,3.81,2.41,5,2.41,5h6S46.3,42,46.3,37.37,44.95,34,44.95,34a34.44,34.44,0,0,0,2.43-4.35,36.23,36.23,0,0,0,2.11-5.47c1.28-4,1.42-.61,1.88-.28s1-.45,1.22-.84a8,8,0,0,0,.83-3.32C53.5,18.64,53.44,17.58,53.44,16.53Z" transform="translate(-0.93)"/></g><g class="cls-18"><path class="cls-2" d="M49.53,1.13,49.42,1c-.69.25-1.37.52-2.07.73C46.95,1.8,35.57,2.87,35.16,3c.47.24,2.78.22,3.29.4,5.73,1,10.51-.57,10.15.24a1.7,1.7,0,0,0,1.32,2c0,.11-.5,1.23-.49,1.34-.48.23.44.83,1.5,1.31l-.56,1.33c-.17.4,1.53,1.27,2.79,1.68,0,.66.05,1.32.09,2a13.52,13.52,0,0,0-.66-4.85A35.79,35.79,0,0,0,49.53,1.13Z" transform="translate(-0.93)"/></g><path class="cls-2" d="M26.78,17" transform="translate(-0.93)"/><path class="cls-17" d="M26.78,17" transform="translate(-0.93)"/><path class="cls-2" d="M41.56,24.18c0-.32.27-2.75-.21-3.88s-.7-.64-.7-.64v4.49Z" transform="translate(-0.93)"/><path class="cls-6" d="M39.88,43.41a.48.48,0,0,1,0-1c.88,0,1.05,0,1.22,0s.35,0,1.16,0c2.19,0,3.65-3.67,4-5.09a.48.48,0,0,1,.93.25c-.06.24-1.58,5.8-5,5.8-.78,0-.94,0-1.1,0S40.78,43.41,39.88,43.41Z" transform="translate(-0.93)"/><path class="cls-6" d="M37.53,48.17h0a.48.48,0,0,1-.47-.5c.05-1.73.06-3.67,0-4.39-2.43-.29-3-3.41-3-3.55a.48.48,0,0,1,1-.15s.48,2.76,2.4,2.76a.53.53,0,0,1,.36.16c.16.16.37.38.22,5.21A.48.48,0,0,1,37.53,48.17Zm-.11-4.87h0Z" transform="translate(-0.93)"/><path class="cls-6" d="M43.06,72.29a.48.48,0,0,1-.48-.48V45.9a.48.48,0,0,1,1,0V71.8A.48.48,0,0,1,43.06,72.29Z" transform="translate(-0.93)"/><path class="cls-6" d="M37.53,72.36a.48.48,0,0,1-.48-.48v-26a.48.48,0,0,1,1,0v26A.48.48,0,0,1,37.53,72.36Z" transform="translate(-0.93)"/><path class="cls-6" d="M27.51,13.86h0a.48.48,0,0,1-.43-.53,8.5,8.5,0,0,0-.11-1.93,8.55,8.55,0,0,1-.09-2.34,6.89,6.89,0,0,1,1.33-3.34c.81-1,2.2-2,3.34-1.57a.48.48,0,1,1-.32.91c-.63-.22-1.64.47-2.26,1.26A6,6,0,0,0,27.79,9.2a7.72,7.72,0,0,0,.09,2.08A9.34,9.34,0,0,1,28,13.43.48.48,0,0,1,27.51,13.86Z" transform="translate(-0.93)"/><path class="cls-6" d="M40.16,36.51a8.06,8.06,0,0,1-3.77-1,.48.48,0,0,1,.45-.85,7.37,7.37,0,0,0,7.24-.24,9.56,9.56,0,0,0,3.74-4.28,25.63,25.63,0,0,0,2.44-6,1,1,0,0,1,1.66-.68c.24,0,.45-.18.77-.76l0-.05A6.32,6.32,0,0,0,53.36,20l0-.33a7.47,7.47,0,0,0-.65-3.14.48.48,0,0,1,0-.27,18.86,18.86,0,0,0-.32-6.83,45.68,45.68,0,0,0-3-8.28l-.25.11c-.48.21-1,.42-1.49.6a18.45,18.45,0,0,1-7.36,1.11c-2.77-.2-4.7.22-5.74,1.26s-1.19,2.91-1.08,4.51a.48.48,0,0,1-1,.06c-.11-1.7-.06-3.84,1.36-5.25C35.13,2.23,37.25,1.73,40.35,2a17.51,17.51,0,0,0,7-1.06c.47-.16.93-.36,1.42-.57L49.41,0a.48.48,0,0,1,.6.21l0,0,.1.18a47,47,0,0,1,3.17,8.68,19.9,19.9,0,0,1,.35,7.05,8.26,8.26,0,0,1,.68,3.49l0,.34a7.26,7.26,0,0,1-.76,3.12l0,0c-.23.43-.83,1.58-2,1.22l-.13-.07a.55.55,0,0,0-.18-.09.54.54,0,0,0-.06.16,26.46,26.46,0,0,1-2.52,6.2,10.42,10.42,0,0,1-4.13,4.68A9.07,9.07,0,0,1,40.16,36.51Z" transform="translate(-0.93)"/><path class="cls-6" d="M33.77,33.4a.48.48,0,0,1-.38-.19A21.21,21.21,0,0,1,30,26.85l-.25-.79c-.17-.54-.34-1-.52-1.69a.24.24,0,0,0-.08-.14l-.06,0a1,1,0,0,1-.88.17A2.21,2.21,0,0,1,27,23.18a11.29,11.29,0,0,1-1-4,6.72,6.72,0,0,1,.4-2.53l.15-.51a1.19,1.19,0,0,1,.83-.88c.19-.06.49-.13.84-.2a7.33,7.33,0,0,0,1.35-.36A10.89,10.89,0,0,0,33,11.07a1.71,1.71,0,0,1,.69-.63,7.46,7.46,0,0,1,6.69-.27A15.94,15.94,0,0,1,44.82,13a19.57,19.57,0,0,0,5,3.14l.35.15a1.71,1.71,0,0,0,.85.2.48.48,0,1,1,0,1,2.62,2.62,0,0,1-1.22-.28L49.41,17a20.42,20.42,0,0,1-5.2-3.29A14.93,14.93,0,0,0,40,11.07a6.49,6.49,0,0,0-5.95.24.77.77,0,0,0-.28.27,11.77,11.77,0,0,1-3.68,3.93,6.16,6.16,0,0,1-1.65.48c-.31.06-.6.13-.74.17s-.17.08-.21.22l-.15.52A5.9,5.9,0,0,0,27,19.08a10.36,10.36,0,0,0,.92,3.69,1.4,1.4,0,0,0,.59.73s0,0,.08,0a1,1,0,0,1,.94-.15,1.13,1.13,0,0,1,.68.79c.17.63.33,1.1.51,1.65l.26.79a20.22,20.22,0,0,0,3.19,6.06.48.48,0,0,1-.38.77Z" transform="translate(-0.93)"/><line class="cls-2" x1="37.42" y1="16.45" x2="32.28" y2="16.45"/><path class="cls-6" d="M38.34,16.93H33.21a.48.48,0,1,1,0-1h5.13a.48.48,0,1,1,0,1Z" transform="translate(-0.93)"/><line class="cls-2" x1="46.55" y1="15.57" x2="41.41" y2="15.57"/><path class="cls-6" d="M47.47,16H42.34a.48.48,0,0,1,0-1h5.13a.48.48,0,0,1,0,1Z" transform="translate(-0.93)"/><path class="cls-6" d="M41.26,25.66H38.53a.48.48,0,0,1-.48-.49l.11-8.74a.48.48,0,0,1,.48-.48h0a.48.48,0,0,1,.48.49L39,24.7h2.25a.48.48,0,0,1,0,1Z" transform="translate(-0.93)"/><path class="cls-6" d="M43,20.34a.48.48,0,0,1-.26-.88A4,4,0,0,1,44.8,19a3.51,3.51,0,0,1,1.85.36.48.48,0,0,1-.52.81,3.05,3.05,0,0,0-1.34-.21,3.18,3.18,0,0,0-1.55.34A.48.48,0,0,1,43,20.34Z" transform="translate(-0.93)"/><path class="cls-6" d="M37,20.34a.48.48,0,0,1-.26-.08,3.19,3.19,0,0,0-1.54-.33,3,3,0,0,0-1.34.21.49.49,0,0,1-.66-.16.47.47,0,0,1,.14-.65A3.51,3.51,0,0,1,35.2,19a4,4,0,0,1,2.06.49.48.48,0,0,1-.26.89Z" transform="translate(-0.93)"/><path class="cls-6" d="M40.63,31.28c-3.84,0-4.78-1.79-4.81-1.87a.48.48,0,1,1,.86-.43s.77,1.34,4,1.34a5.82,5.82,0,0,0,2.89-.56.48.48,0,0,1,.53.8A6.5,6.5,0,0,1,40.63,31.28Z" transform="translate(-0.93)"/><path class="cls-6" d="M25.19,72.31h0a.48.48,0,0,1-.46-.5l.51-11.66a.47.47,0,0,1,.5-.46.48.48,0,0,1,.46.5l-.51,11.66A.48.48,0,0,1,25.19,72.31Z" transform="translate(-0.93)"/><path class="cls-6" d="M56.1,72.31a.48.48,0,0,1-.48-.46l-.93-19.7a.48.48,0,1,1,1,0l.93,19.7a.48.48,0,0,1-.46.5Z" transform="translate(-0.93)"/><path class="cls-6" d="M52.68,68.51a.48.48,0,0,1-.34-.14L46.56,62.6a.48.48,0,0,1,.68-.68L53,67.69a.48.48,0,0,1-.34.82Z" transform="translate(-0.93)"/><line class="cls-2" x1="36.51" y1="71.95" x2="24.33" y2="71.95"/><path class="cls-6" d="M37.44,72.43H25.26a.48.48,0,0,1,0-1H37.44a.48.48,0,1,1,0,1Z" transform="translate(-0.93)"/><line class="cls-2" x1="55.08" y1="71.95" x2="42.34" y2="71.95"/><path class="cls-6" d="M56,72.43H43.27a.48.48,0,1,1,0-1H56a.48.48,0,1,1,0,1Z" transform="translate(-0.93)"/><path class="cls-6" d="M33.83,37.65H26.3a.48.48,0,0,1,0-1h7.06l0-3.61a.48.48,0,0,1,.48-.47h0a.48.48,0,0,1,.47.49l-.06,4.09A.48.48,0,0,1,33.83,37.65Z" transform="translate(-0.93)"/><path class="cls-6" d="M28.08,68.51a.48.48,0,0,1-.34-.82l5.77-5.77a.48.48,0,1,1,.68.68l-5.77,5.77A.48.48,0,0,1,28.08,68.51Z" transform="translate(-0.93)"/><circle class="cls-6" cx="33.3" cy="20.45" r="0.81"/><circle class="cls-6" cx="42.61" cy="20.45" r="0.81"/><path class="cls-6" d="M66.83,51.7c-.24,0-.49,0-.68,0L55,50.5a.48.48,0,1,1,.1-1l11.16,1.18a6.77,6.77,0,0,0,1.17,0s4.14-.48,4.37-2.85c.26-2.76,1.87-18.59,1.89-18.75a.16.16,0,0,0-.14-.18l-10.1-1a.16.16,0,0,0-.18.14L61.94,41.13a.48.48,0,1,1-1-.1L62.3,28a1.12,1.12,0,0,1,1.23-1l10.1,1a1.12,1.12,0,0,1,1,1.23c0,.16-1.63,16-1.89,18.74-.3,3.15-5,3.69-5.22,3.71A6.9,6.9,0,0,1,66.83,51.7Z" transform="translate(-0.93)"/><g class="cls-19"><path class="cls-13" d="M63.28,27.53,61.36,39.91l5.36,3.4s-1.43-.54-1.61-5.72,1.38-6.84,1.38-7.91S63.28,27.53,63.28,27.53Z" transform="translate(-0.93)"/></g><line class="cls-2" x1="68.9" y1="31.03" x2="61.89" y2="30.48"/><path class="cls-6" d="M69.83,31.51h0l-7-.55a.48.48,0,0,1,.08-1l7,.55a.48.48,0,0,1,0,1Z" transform="translate(-0.93)"/><line class="cls-2" x1="66.75" y1="33.51" x2="61.53" y2="32.98"/><path class="cls-6" d="M67.67,34h0l-5.22-.53a.48.48,0,0,1,.1-1l5.22.53a.48.48,0,0,1,0,1Z" transform="translate(-0.93)"/><path class="cls-2" d="M27.43,52.17l-.1-.63A1.87,1.87,0,0,0,25.23,50l.64-.1a1.87,1.87,0,0,0,1.53-2.14l-.1-.63a1.87,1.87,0,0,0-2.11-1.58l-.25,0a1.87,1.87,0,0,0,1.53-2.14l-.1-.63c-.24-1.53-1.44-2.15-3-1.4,0,0-6.12.84-8.67,1.38l1-7.4-2.81-.74-4.58,9a2.74,2.74,0,0,0-.59,2.09,38.23,38.23,0,0,0,.47,5.16c.47,3,3,7.51,3,7.51.17,1.12,1.14,1.75,3.35,1.41l1.14-.18.42-.07,8.18-1.26c1.1-.17,2.45-.55,2.28-1.68l0-.25a2.06,2.06,0,0,0-2.32-1.74l1.76-.27A1.87,1.87,0,0,0,27.43,52.17Z" transform="translate(-0.93)"/><g class="cls-3"><polygon class="cls-4" points="11.91 34.6 7.22 43.8 13.54 44.45 14.72 35.34 11.91 34.6"/></g><path class="cls-6" d="M8.44,43.47a.48.48,0,0,1-.43-.7s1.35-2.59,2.79-5.15c3-5.36,3.61-5.45,3.95-5.5l1.16-.18a2.44,2.44,0,0,1,1.86.48,2.58,2.58,0,0,1,1,1.67.48.48,0,0,1,0,.2L17,40.47a.48.48,0,1,1-.93-.26l1.7-6.08a1.62,1.62,0,0,0-.61-1,1.49,1.49,0,0,0-1.13-.29l-1.12.17c-.74.44-3.66,5.48-6.07,10.15A.48.48,0,0,1,8.44,43.47ZM15,33Z" transform="translate(-0.93)"/><path class="cls-2" d="M15.19,28.71c-1.75.18-3.12,1-3,1.89l.25,2.45.42,4.08,1.64,15.78A3.22,3.22,0,0,0,18,55.77l8.89-.92a3.22,3.22,0,0,0,2.86-3.52L28.18,36.17l-.38-3.65-.29-2.76c-.13-1.27-1.68-2.15-3.43-2Z" transform="translate(-0.93)"/><path class="cls-2" d="M27.78,33.09l-.28-2.76A3,3,0,0,0,24,27.89l-8.89.9c-1.76.18-3.12,1-3,1.88l.16,1.56" transform="translate(-0.93)"/><path class="cls-6" d="M27.78,33.57a.48.48,0,0,1-.48-.43L27,30.37a2.55,2.55,0,0,0-2.94-2l-8.89.9c-1.66.17-2.65.92-2.6,1.36l.16,1.56a.48.48,0,1,1-1,.1l-.16-1.56c-.12-1.16,1.37-2.2,3.46-2.41l8.89-.9a3.5,3.5,0,0,1,4,2.87L28.26,33a.48.48,0,0,1-.43.53Z" transform="translate(-0.93)"/><path class="cls-2" d="M12.44,34l1.92,19a3.22,3.22,0,0,0,3.51,2.87l8.89-.9a3.22,3.22,0,0,0,2.87-3.51l-2-19.27" transform="translate(-0.93)"/><path class="cls-6" d="M17.55,56.35A3.69,3.69,0,0,1,13.89,53L12,34.06a.48.48,0,1,1,1-.1l1.92,19a2.73,2.73,0,0,0,3,2.44l8.89-.9a2.74,2.74,0,0,0,2.44-3l-2-19.27a.48.48,0,1,1,1-.1l2,19.27a3.7,3.7,0,0,1-3.3,4l-8.89.9Z" transform="translate(-0.93)"/><g class="cls-5"><path class="cls-20" d="M15.19,28.71c-1.75.18-3.12,1-3,1.89l.25,2.45.42,4.08,1.64,15.78A3.22,3.22,0,0,0,18,55.77l8.89-.92a3.22,3.22,0,0,0,2.86-3.52L28.18,36.17l-.38-3.65-.29-2.76c-.13-1.27-1.68-2.15-3.43-2Z" transform="translate(-0.93)"/></g><path class="cls-2" d="M7.66,45.69a3,3,0,0,1,1-2.57l0-.07s3.53,0,4.44-.14l10.67-1.42c1.81-.16,2.5.25,2.66,1.28l.1.63a1.87,1.87,0,0,1-1.53,2.14l.25,0a1.87,1.87,0,0,1,2.11,1.58l.1.63a1.87,1.87,0,0,1-1.53,2.14l-.64.1a1.87,1.87,0,0,1,2.11,1.58l.1.63a1.87,1.87,0,0,1-1.53,2.14l-1.76.27a2.06,2.06,0,0,1,2.32,1.74l0,.25c.17,1.13-1.17,1.51-2.28,1.68l-8.18,1.26-.42.07-1.14.18c-2.21.34-3.18-.29-3.35-1.41,0,0-2.54-4.49-3-7.51A38.22,38.22,0,0,1,7.66,45.69Z" transform="translate(-0.93)"/><g class="cls-3"><path class="cls-4" d="M7.66,45.69a3,3,0,0,1,1-2.57l0-.07a41.4,41.4,0,0,0,4.92-.28c1.83-.5,9.83-1.41,9.83-1.41,1.57-.76,2.78-.14,3,1.4l.1.63a1.87,1.87,0,0,1-1.53,2.14l.25,0a1.87,1.87,0,0,1,2.11,1.58l.1.63a1.87,1.87,0,0,1-1.53,2.14l-.64.1a1.87,1.87,0,0,1,2.11,1.58l.1.63a1.87,1.87,0,0,1-1.53,2.14l-1.76.27a2.06,2.06,0,0,1,2.32,1.74l0,.25c.17,1.13-1.17,1.51-2.28,1.68l-8.18,1.26-.42.07-1.14.18c-2.21.34-3.18-.29-3.35-1.41,0,0-2.54-4.49-3-7.51A38.22,38.22,0,0,1,7.66,45.69Z" transform="translate(-0.93)"/></g><path class="cls-2" d="M12.54,42.9" transform="translate(-0.93)"/><path class="cls-17" d="M12.54,42.9" transform="translate(-0.93)"/><path class="cls-4" d="M12.18,47.12l12.35-2c2.53-.39,1.42-2.78,1.42-2.78s.43,2-10.48,3.33A9.32,9.32,0,0,0,12.18,47.12Z" transform="translate(-0.93)"/><path class="cls-4" d="M12.67,51.55s10.48-1.72,12.72-2.07a1.78,1.78,0,0,0,1.54-2.61s.52,1.72-8.84,3C13.82,50.39,12.67,51.55,12.67,51.55Z" transform="translate(-0.93)"/><path class="cls-4" d="M13.91,55.65s9.51-1.49,11.62-1.72c3.07-.33,1.1-3.2,1.1-3.2s-.5,2.37-9,3.69A18.9,18.9,0,0,0,13.91,55.65Z" transform="translate(-0.93)"/><path class="cls-4" d="M14,59.35s8.25-1,10.43-1.32c2.77-.43,1.48-2.87,1.48-2.87s-.49,1.91-9.35,3.28A7.13,7.13,0,0,0,14,59.35Z" transform="translate(-0.93)"/><path class="cls-2" d="M11.14,58.36s-2.54-4.49-3-7.51a38.22,38.22,0,0,1-.47-5.16,3,3,0,0,1,1-2.57,8.18,8.18,0,0,1,.64-.51s2.12-4,2.39-4.32C11.68,39,9.32,44,8.9,45,8,47.18,11.07,55.71,12.66,59.32l-.65.07A1.49,1.49,0,0,1,11.14,58.36Z" transform="translate(-0.93)"/><path class="cls-17" d="M12.54,42.9" transform="translate(-0.93)"/><path class="cls-6" d="M15.52,51.83a.48.48,0,0,1-.07-1l10.35-1.6a1.39,1.39,0,0,0,1.15-1.6l-.1-.63a1.4,1.4,0,0,0-.55-.92,1.36,1.36,0,0,0-1-.26.48.48,0,0,1-.15-1,2.32,2.32,0,0,1,1.74.43,2.36,2.36,0,0,1,.93,1.54l.1.63a2.36,2.36,0,0,1-2,2.69l-10.35,1.6Z" transform="translate(-0.93)"/><path class="cls-6" d="M14.15,56.51a.48.48,0,0,1-.07-1l11.74-1.83A1.39,1.39,0,0,0,27,52.13l-.1-.63a1.4,1.4,0,0,0-.55-.92,1.36,1.36,0,0,0-1-.26L12.8,52.24a.48.48,0,0,1-.15-1l12.49-1.91a2.32,2.32,0,0,1,1.74.43,2.36,2.36,0,0,1,.93,1.54l.1.63a2.36,2.36,0,0,1-2,2.69L14.23,56.51Z" transform="translate(-0.93)"/><path class="cls-6" d="M15.5,60a.48.48,0,0,1-.07-1l8.69-1.34a4.53,4.53,0,0,0,1.48-.43c.44-.24.46-.49.43-.7l0-.25A1.58,1.58,0,0,0,24.19,55L16,56.22a.48.48,0,0,1-.15-1L24,54a2.55,2.55,0,0,1,2.89,2.14l0,.25a1.6,1.6,0,0,1-.91,1.69,5.35,5.35,0,0,1-1.8.54L15.57,60Z" transform="translate(-0.93)"/><path class="cls-6" d="M13.44,60.22a3.34,3.34,0,0,1-3.26-2.07,29,29,0,0,1-2.73-7.31A37.78,37.78,0,0,1,7,45.62a6.53,6.53,0,0,1,1.45-3.69.48.48,0,0,1,.81.52,5.76,5.76,0,0,0-1.3,3.15,37.67,37.67,0,0,0,.46,5.1,28.61,28.61,0,0,0,2.63,7c.56,1.11,1.32,1.77,3.23,1.48l1.58-.24a.48.48,0,0,1,.15,1l-1.58.24A6.38,6.38,0,0,1,13.44,60.22Z" transform="translate(-0.93)"/><path class="cls-6" d="M12,48a.48.48,0,0,1-.07-1l13-2.06A1.39,1.39,0,0,0,26,43.37l-.1-.63a1.4,1.4,0,0,0-.55-.92,1.36,1.36,0,0,0-1-.26l-13,2a.48.48,0,0,1-.15-1l13-2a2.32,2.32,0,0,1,1.75.43,2.36,2.36,0,0,1,.93,1.54l.1.63a2.36,2.36,0,0,1-2,2.69L12,48Z" transform="translate(-0.93)"/><path class="cls-6" d="M79.59,96H1.41a.48.48,0,1,1,0-1H79.59a.48.48,0,1,1,0,1Z" transform="translate(-0.93)"/><polyline class="cls-2" points="16.7 34.27 17.68 39.47 14.59 34.78 9.72 36.07 13.91 32.59 11.44 29.91 14.95 30.64 17.68 27.45 17.01 31.72 19.84 32.88 18.2 33.58"/><path class="cls-6" d="M18.6,39.79a.32.32,0,0,1-.27-.14l-3-4.5-4.65,1.23a.32.32,0,0,1-.29-.56l3.93-3.27-2.24-2.43a.32.32,0,0,1,.3-.53l3.33.69,2.61-3a.32.32,0,0,1,.56.26l-.64,4,2.6,1.06a.32.32,0,0,1,0,.59l-1.64.7a.32.32,0,0,1-.25-.59l.93-.4L17.82,32a.32.32,0,0,1-.2-.35l.5-3.16-2,2.33a.32.32,0,0,1-.31.11l-2.54-.53,1.79,1.95a.32.32,0,0,1,0,.46L12,35.39l3.47-.92a.32.32,0,0,1,.35.13L18,38l-.68-3.63a.32.32,0,0,1,.63-.12l1,5.2a.32.32,0,0,1-.2.36Z" transform="translate(-0.93)"/></g></g></svg>