<?xml version="1.0" encoding="utf-8"?><svg width="3456" height="96" viewBox="0 0 3456 96" xmlns="http://www.w3.org/2000/svg" xmlns:xlink="http://www.w3.org/1999/xlink"><svg width="96" height="96" fill="none" viewBox="0 0 96 96" id="1" xmlns="http://www.w3.org/2000/svg"><path fill-rule="evenodd" clip-rule="evenodd" d="M48.7 35.327c0-8.194 6.31-14.936 14.318-15.614v-2.38c0-.736.596-1.333 1.33-1.333.735 0 1.331.597 1.331 1.333v2.38C73.69 20.39 80 27.136 80 35.327c0 8.192-6.31 14.937-14.32 15.615v8.368a4.94 4.94 0 0 1-1.33 9.694 4.94 4.94 0 0 1-1.332-9.694v-8.368C55.01 50.264 48.7 43.522 48.7 35.327zM62.08 64.068a2.273 2.273 0 0 1 2.268-2.273c1.25 0 2.27 1.02 2.27 2.273a2.275 2.275 0 0 1-2.27 2.273 2.273 2.273 0 0 1-2.268-2.273zm2.268-41.746c-7.16 0-12.988 5.834-12.988 13.005 0 7.172 5.826 13.006 12.988 13.006 7.161 0 12.99-5.834 12.99-13.006 0-7.171-5.826-13.005-12.99-13.005zm13.357 57.174a1.326 1.326 0 0 0 1.879.046 1.333 1.333 0 0 0 .048-1.885l-4.879-5.14V51.901c0-.736-.596-1.333-1.33-1.333-.735 0-1.33.597-1.33 1.333l-.003 21.15c0 .341.13.672.367.92l5.248 5.524zM64.758 33.571l-.023-.006-3.074-5.404a1.332 1.332 0 1 0-2.315 1.32l3.231 5.682a1.79 1.79 0 0 0 3.464.764l2.44-1.46a1.334 1.334 0 0 0-1.368-2.29l-2.336 1.398-.019-.004zM50.031 79.909h21.663a1.332 1.332 0 0 0 0-2.665h-18.64l2.645-2.891c.224-.245.346-.565.349-.896V51.902c0-.736-.596-1.333-1.33-1.333-.735 0-1.331.597-1.331 1.333v20.945l-4.338 4.83a1.332 1.332 0 0 0 .982 2.232zm-26.128-7.926C19.212 69.996 16 65.007 16 59.293c0-3.35 1.115-6.57 3.143-9.065l.333-.405c1.133-1.285 1.756-2.945 1.788-4.717l-.51-2.263c-.022 0-.829-2.06-.829-7.396 0-.735.597-1.332 1.331-1.332h14.222c.735 0 1.331.597 1.331 1.332 0 5.35-.806 7.407-.897 7.623l-.439 2.03a7.433 7.433 0 0 0 .995 3.628c.37.634.157 1.45-.479 1.822a1.328 1.328 0 0 1-1.82-.48 10.136 10.136 0 0 1-1.36-5.105c0-.1.01-.198.032-.294l.546-2.414.013-.04c.107-.316.623-1.835.726-5.437H22.603c.112 3.784.668 5.25.676 5.266l.61 2.625c.02.096.031.195.031.294 0 .119-.002.238-.006.357h5.52a1.332 1.332 0 0 1 0 2.665h-5.96a9.635 9.635 0 0 1-1.986 3.57l-.298.363c-1.634 2.013-2.54 4.632-2.54 7.375 0 5.33 3.378 9.86 8.033 10.778.72.14 1.192.839 1.05 1.564-.022.123-.062.24-.115.346h4.685c-1.028-1.316-1.65-3.02-1.65-4.877 0-1.847.62-3.624 1.746-5.005l.027-.033.073-.088.1-.121c.444-.501.697-1.16.726-1.866l-.242-1.063v.002c-.021 0-.436-1.146-.436-3.89 0-.736.596-1.333 1.33-1.333h7.226c.734 0 1.33.597 1.33 1.332 0 2.777-.423 3.918-.508 4.118l-.167.82c.026.718.282 1.381.726 1.882l.099.119.032.038.066.08c1.129 1.386 1.749 3.164 1.749 5.01 0 1.858-.622 3.56-1.65 4.875h3.853a1.332 1.332 0 0 1 0 2.665h-29.17a1.332 1.332 0 0 1 0-2.665h6.34zm11.716-13.838c-.009-.026-.187-.539-.268-1.771h4.481c-.083 1.2-.26 1.752-.321 1.94l-.009.027-.277 1.22a1.36 1.36 0 0 0-.031.293c0 1.418.497 2.756 1.53 3.934.737.906 1.144 2.084 1.144 3.318 0 2.69-1.919 4.877-4.276 4.877-2.358 0-4.277-2.188-4.277-4.877 0-1.234.407-2.414 1.275-3.478.902-1.02 1.4-2.358 1.4-3.774 0-.098-.011-.197-.033-.293l-.338-1.415z" fill="#2D3C4D"/></svg><svg width="96" height="96" fill="none" viewBox="0 0 96 96" id="1032" x="96" xmlns="http://www.w3.org/2000/svg"><path fill-rule="evenodd" clip-rule="evenodd" d="M20.01 77.938h-2.648A1.356 1.356 0 0 1 16 76.588c0-.744.61-1.349 1.362-1.349h1.287V33.456c0-.744.61-1.349 1.362-1.349h4.044V25.38c0-.745.61-1.35 1.362-1.35h4.13v-6.68c0-.745.611-1.35 1.363-1.35h8.131c.752 0 1.362.605 1.362 1.35v6.662h4.172c.752 0 1.362.604 1.362 1.349v6.79h4.088c.752 0 1.362.604 1.362 1.348v4.215c0 .745-.61 1.35-1.362 1.35a1.356 1.356 0 0 1-1.363-1.35V34.85h-4.087a1.356 1.356 0 0 1-1.362-1.35V26.71H39.04a1.356 1.356 0 0 1-1.362-1.349v-6.663h-5.407v6.685c0 .744-.61 1.349-1.362 1.349h-4.13v6.724c0 .745-.611 1.35-1.363 1.35h-4.044v40.433h8.131V60.398c0-.745.61-1.35 1.362-1.35h8.175c.752 0 1.362.605 1.362 1.35 0 .745-.61 1.349-1.362 1.349h-6.812v13.492h6.812c.752 0 1.362.605 1.362 1.35 0 .744-.607 1.349-1.362 1.349h-19.03zM39.5 54.712c.267.283.63.426.991.426.336 0 .67-.12.93-.366l1.839-1.71v26.206c0 .745.61 1.35 1.362 1.35h10.812c.752 0 1.363-.605 1.363-1.35V67.101h5.409v12.167c0 .745.61 1.35 1.362 1.35H74.55c.752 0 1.362-.602 1.362-1.347V53.116l1.796 1.658c.547.51 1.417.48 1.923-.065a1.336 1.336 0 0 0-.065-1.905l-19.14-17.677a1.368 1.368 0 0 0-1.863.002L39.56 52.807a1.336 1.336 0 0 0-.06 1.905zm33.69-4.112l-13.69-12.64-13.515 12.568v27.39h8.087V65.752c0-.744.61-1.349 1.362-1.349h8.134c.752 0 1.362.605 1.362 1.35v12.167h8.26V50.6zm-9.625 8.492h-8.133a1.356 1.356 0 0 1-1.363-1.35v-8.095c0-.745.61-1.35 1.363-1.35h8.133c.752 0 1.363.605 1.363 1.35v8.096c0 .744-.608 1.349-1.363 1.349zm-1.362-2.699h-5.409v-5.397h5.409v5.397zm-31.335-5.397a1.356 1.356 0 0 1-1.363-1.349V36.112c0-.745.61-1.35 1.362-1.35h8.175c.752 0 1.362.605 1.362 1.35v6.681c0 .745-.61 1.35-1.362 1.35a1.356 1.356 0 0 1-1.362-1.35v-5.332h-5.45v12.186c0 .745-.608 1.35-1.363 1.35z" fill="#2D3C4D"/></svg><svg width="96" height="96" fill="none" viewBox="0 0 96 96" id="1085" x="192" xmlns="http://www.w3.org/2000/svg"><path fill-rule="evenodd" clip-rule="evenodd" d="M39.169 51.52c-3.216.598-6.04 1.62-7.03 3.267l-1.775.001c-.011.006-1.262.038-2.026-.696-.45-.432-.669-1.075-.669-1.966v-1.403h.016a4.059 4.059 0 0 0 0-8.116H25.05A4.057 4.057 0 0 0 21 46.665a4.057 4.057 0 0 0 4.007 4.057v1.404c0 1.646.508 2.967 1.512 3.916 1.374 1.302 3.187 1.417 3.746 1.417.085 0 .141-.003.163-.005h1.69c1.607 3.125 8.404 6.483 15.57 6.483 7.164 0 13.965-3.36 15.572-6.484l1.483-.002c.035.003.102.005.2.005.618 0 2.418-.12 3.786-1.414 1.001-.952 1.51-2.27 1.51-3.916v-1.403h.045c2.234 0 4.05-1.82 4.05-4.058a4.057 4.057 0 0 0-4.05-4.058h-2.636a4.057 4.057 0 0 0-4.05 4.058 4.058 4.058 0 0 0 3.978 4.057v1.404c0 .891-.218 1.534-.668 1.966-.767.742-2.018.702-2.09.694H63.24c-.991-1.645-3.814-2.667-7.027-3.264.235-.172.36-.289.373-.3 7.691-6.809 7.037-21.418 7.007-21.968 0-8.91-5.197-13.246-15.89-13.254h-.031c-10.692.008-15.89 4.343-15.89 13.185-.029.616-.68 15.225 6.974 22.002.021.02.16.15.413.334zm7.188 16.608c-7.795.31-14.598 3.309-14.598 6.587 0 .736.596 1.347 1.331 1.347s1.331-.584 1.328-1.318c.204-.933 4.713-3.644 11.939-3.947v3.918c0 .736.596 1.334 1.331 1.334s1.331-.598 1.331-1.334v-3.918c7.202.304 11.702 2.996 11.933 3.937.01.728.604 1.315 1.331 1.315.735 0 1.331-.598 1.331-1.334 0-3.275-6.8-6.275-14.595-6.587v-1.44c0-.737-.596-1.335-1.331-1.335s-1.331.598-1.331 1.334v1.44zM33.007 80a1.38 1.38 0 0 1-.958-.4 1.33 1.33 0 0 1-.373-.934c0-.376.133-.696.373-.96.506-.48 1.384-.507 1.89 0 .267.266.4.61.4.96 0 .347-.133.667-.4.934-.24.24-.585.4-.931.4zm29.287 0a1.38 1.38 0 0 1-.958-.4 1.383 1.383 0 0 1-.373-.934c0-.35.133-.696.373-.936a1.368 1.368 0 0 1 1.89-.027c.269.267.4.61.4.96 0 .347-.134.667-.374.934a1.353 1.353 0 0 1-.958.403zm-15.602-.4c.267.237.613.4.959.4s.692-.16.931-.4c.24-.24.4-.587.4-.934 0-.373-.16-.694-.4-.96-.532-.48-1.357-.507-1.89 0a1.39 1.39 0 0 0-.373.96c0 .347.134.694.373.934zm.996-26.14c-8.017 0-12.902 1.769-13.272 2.718.189 1.214 5.799 5.09 13.272 5.09s13.086-3.876 13.267-5.164c-.365-.875-5.25-2.644-13.267-2.644zm2.614-2.86l-.351-.006-4.877.006c-2.966 0-4.436-1.305-4.521-1.382-6.68-5.912-6.127-19.573-6.11-19.96v-.007c0-7.318 4.086-10.583 13.245-10.586 9.159.003 13.243 3.268 13.245 10.653v.006c.015.34.578 13.974-6.134 19.918-.061.056-1.533 1.358-4.496 1.358zm17.346-5.323a1.39 1.39 0 0 0 0 2.78h2.636a1.39 1.39 0 0 0 0-2.78h-2.636zm-43.986 1.388c0-.766.62-1.388 1.387-1.388v-.002h2.636a1.39 1.39 0 1 1 0 2.78H25.05a1.39 1.39 0 0 1-1.387-1.39z" fill="#2D3C4D"/></svg><svg width="96" height="96" fill="none" viewBox="0 0 96 96" id="1098" x="288" xmlns="http://www.w3.org/2000/svg"><path fill-rule="evenodd" clip-rule="evenodd" d="M44.136 29.216c0-4.307-2.878-9.422-6.667-10.392v9.006c0 .737-.593 1.33-1.325 1.33a1.328 1.328 0 0 1-1.325-1.33v-8.983c-3.746 1.028-6.58 6.096-6.58 10.369 0 .734-.593 1.33-1.324 1.33a1.328 1.328 0 0 1-1.325-1.33C25.59 22.978 30.121 16 36.19 16c6.065 0 10.596 6.978 10.596 13.216 0 .734-.594 1.33-1.325 1.33a1.328 1.328 0 0 1-1.325-1.33zM64.009 42.58c-4.361 0-7.904-4.794-7.904-10.686 0-5.225 2.809-8.103 7.904-8.103 5.101 0 7.907 2.878 7.907 8.103 0 5.895-3.548 10.686-7.907 10.686zm-17.178-8.002h1.237c.732 0 1.325-.596 1.325-1.33 0-.735-.593-1.33-1.325-1.33H24.133c-.732 0-1.325.595-1.325 1.33 0 .734.593 1.33 1.325 1.33h1.552a1.412 1.412 0 0 0-.002.077c0 7.294 4.743 13.224 10.575 13.224 5.832 0 10.575-5.932 10.575-13.224 0-.026 0-.052-.002-.077zm-2.645 0H28.33c.002.025.003.051.003.077 0 5.823 3.556 10.564 7.925 10.564 4.37 0 7.926-4.738 7.926-10.564 0-.026 0-.052.002-.077zm14.569-2.682c0-3.764 1.619-5.442 5.254-5.442 3.636 0 5.257 1.678 5.257 5.442 0 4.35-2.408 8.026-5.257 8.026-2.848 0-5.254-3.676-5.254-8.026zM51.987 47.95c-.312 0-.628-.112-.882-.338a1.334 1.334 0 0 1-.106-1.878c2.59-2.916 5.884-3.096 7.3-3.173h.008l.276-.017c.66-.063 1.362.5 1.415 1.235a1.328 1.328 0 0 1-1.23 1.42l-.318.019c-1.174.061-3.614.194-5.472 2.288a1.329 1.329 0 0 1-.99.444zm24.874 15.842a1.327 1.327 0 0 0 1.67-.854c1.144-3.51 2.15-7.273.874-11.293-2.375-7.448-8.18-8.805-9.903-9.042-.704-.08-1.39.41-1.492 1.136-.1.726.409 1.4 1.132 1.498 1.336.183 5.838 1.25 7.74 7.22 1.041 3.266.18 6.43-.87 9.656-.227.7.152 1.45.849 1.678zM63.73 47.88c-.453.11-.776.414-.925.854L58.69 60.76A1.325 1.325 0 0 0 59 62.13l4.057 4.103c.246.25.586.39.938.39.294 0 .694-.14.951-.398l4.002-4.102c.347-.354.466-.873.31-1.346l-3.94-12.027a1.328 1.328 0 0 0-.915-.87h.944c.73 0 1.324-.596 1.324-1.33 0-.734-.593-1.33-1.325-1.33h-2.705c-.731 0-1.325.596-1.325 1.33 0 .734.594 1.33 1.325 1.33h1.088zm.257 15.522l-2.528-2.559 2.565-7.502 2.46 7.5-2.497 2.561zm-42.527-8.4c-.759 1.232-1.433 2.803-1.92 4.803-.856 3.499-1.166 11.676-.607 15.9a1.33 1.33 0 0 1-1.14 1.496 1.327 1.327 0 0 1-1.489-1.144c-.604-4.555-.273-13.078.657-16.887 2.701-11.08 10.586-11.314 11.255-11.334l.033-.001c.366.005.713.162.957.43.246.272.37.631.344.995l.003 9.218h13.257v-9.186c0-.726.58-1.444 1.306-1.455.324 0 8.453.01 11.214 11.335.93 3.802 1.262 12.32.66 16.885a1.33 1.33 0 0 1-1.49 1.144 1.334 1.334 0 0 1-1.141-1.495c.559-4.238.249-12.41-.604-15.903-.484-1.984-1.148-3.546-1.894-4.774.065 1.345.097 2.7.097 4.056 0 6.052-1.444 15.673-2.97 19.794a1.33 1.33 0 0 1-1.707.788 1.332 1.332 0 0 1-.779-1.714c1.415-3.82 2.806-13.162 2.806-18.866a80.489 80.489 0 0 0-.319-7.198 8.062 8.062 0 0 0-2.532-1.19v9.11c0 .733-.593 1.33-1.325 1.33H28.226a1.328 1.328 0 0 1-1.324-1.33v-9.11c-.7.184-1.612.534-2.572 1.198l-.002.024-.002.029a80.445 80.445 0 0 0-.315 7.143c0 5.7 1.388 15.043 2.803 18.868a1.334 1.334 0 0 1-.779 1.71 1.46 1.46 0 0 1-.46.078c-.539 0-1.045-.33-1.244-.867-1.526-4.124-2.97-13.743-2.97-19.792 0-1.367.034-2.733.1-4.089z" fill="#2D3C4D"/></svg><svg width="96" height="96" fill="none" viewBox="0 0 96 96" id="1099" x="384" xmlns="http://www.w3.org/2000/svg"><path fill-rule="evenodd" clip-rule="evenodd" d="M24.822 40.584a1.316 1.316 0 0 0 1.302.04l16.654-8.798c.542-.287.82-.907.667-1.503l-3.383-13.321a1.328 1.328 0 0 0-.614-.822 1.365 1.365 0 0 0-1.018-.138l-13.268 3.565a1.33 1.33 0 0 0-.983 1.285v18.554c0 .465.245.899.643 1.138zm2.015-3.344V21.913l10.985-2.95 2.793 10.998-13.779 7.279zm-9.508 35.884a1.33 1.33 0 0 1 0-2.66c4.055 0 7.355-3.238 7.355-7.218 0-2.046-1.01-4.121-2.7-5.552-2.152-1.97-3.239-4.18-3.266-6.604-.05-4.344 3.391-7.691 3.537-7.83a1.32 1.32 0 0 1 1.874.043 1.33 1.33 0 0 1-.035 1.879c-.03.026-2.763 2.716-2.718 5.892.024 1.655.818 3.212 2.362 4.624 2.243 1.9 3.6 4.733 3.6 7.55.003 5.444-4.49 9.876-10.01 9.876zm46.3-4.15a1.329 1.329 0 0 0 1.948-1.176V43.362c0-.602-.404-1.126-.983-1.285L47.12 37.38a1.355 1.355 0 0 0-1.018.138c-.306.181-.526.477-.614.823L41.03 55.887a1.328 1.328 0 0 0 .667 1.503L63.63 68.974zM43.862 55.525L62.92 65.592V44.383l-15.192-4.08-3.866 15.222zm21.184 18.56a9.626 9.626 0 0 0 8.857 5.84c1.942 0 3.853-.629 5.535-1.81a1.336 1.336 0 0 0 .321-1.854 1.333 1.333 0 0 0-1.852-.322c-1.212.857-2.633 1.328-4.004 1.328a6.979 6.979 0 0 1-6.418-4.23 1.32 1.32 0 0 0-1.743-.698 1.327 1.327 0 0 0-.696 1.746z" fill="#2D3C4D"/></svg><svg width="96" height="96" fill="none" viewBox="0 0 96 96" id="167" x="480" xmlns="http://www.w3.org/2000/svg"><path fill-rule="evenodd" clip-rule="evenodd" d="M17.334 66.658A1.334 1.334 0 0 1 16 65.324v-.055c-.015.368.124.735.398 1.005l10.837 10.67c.25.245.586.383.936.383h26.487c.736 0 1.334-.597 1.334-1.333v-10.67a1.334 1.334 0 0 0-2.668 0v9.336h-23.82v-9.336c0-.736-.597-1.333-1.333-1.333h-9.503v1.333c0 .737-.598 1.334-1.334 1.334zm8.06-40.01H36.06a1.333 1.333 0 1 0 0-2.667H25.394a1.334 1.334 0 0 0 0 2.667zM53.32 61.323c-10.295 0-18.675-8.378-18.675-18.671s8.38-18.671 18.675-18.671 18.675 8.378 18.675 18.671-8.38 18.671-18.675 18.671zm0-34.675c-8.828 0-16.007 7.178-16.007 16.004s7.179 16.004 16.007 16.004c8.828 0 16.007-7.178 16.007-16.004S62.15 26.648 53.321 26.648zm-20.006 5.377h-7.921a1.334 1.334 0 0 1 0-2.667h7.92a1.334 1.334 0 0 1 0 2.667zm-7.921 13.377h5.46a1.334 1.334 0 0 0 0-2.667h-5.46a1.334 1.334 0 0 0 0 2.667zm5.295-5.417h-5.295a1.334 1.334 0 0 1 0-2.668h5.293a1.334 1.334 0 0 1 .002 2.668zm21.905 5.355c-2.664-.474-4.66-3.581-4.66-7.465 0-3.7 1.956-5.82 5.371-5.82 3.415 0 5.373 2.12 5.373 5.82 0 3.88-1.994 6.986-4.656 7.463 4.452.24 7.273 2.74 7.425 6.644a1.339 1.339 0 0 1-1.28 1.387c-.814.008-1.355-.547-1.388-1.28-.14-3.705-3.873-4.102-5.474-4.102-1.886 0-5.072.533-5.234 4.107a1.33 1.33 0 0 1-1.332 1.275c-.018 0-.04 0-.058-.002a1.333 1.333 0 0 1-1.273-1.39c.177-3.896 2.906-6.39 7.186-6.637zm.711-10.618c-1.403 0-2.703.384-2.703 3.153 0 2.864 1.425 4.86 2.703 4.86 1.278 0 2.705-1.995 2.705-4.86 0-2.769-1.299-3.153-2.705-3.153zM26.837 72.809l-6.248-6.151h6.248v6.15zm-1.443-22.195h5.295a1.334 1.334 0 0 0-.003-2.667h-5.292a1.334 1.334 0 0 0 0 2.667zm49.668 29.4a4.967 4.967 0 0 1-4.293-2.479l-6.691-9.927c-1.414-2.444-.6-5.482 1.766-6.845 2.284-1.325 5.45-.464 6.766 1.814l6.694 9.928c1.414 2.443.6 5.481-1.767 6.844a4.955 4.955 0 0 1-2.475.664zM67.178 63.07c.347-.2.744-.306 1.14-.306.816 0 1.576.44 2.03 1.224l6.693 9.928a2.288 2.288 0 0 1-.837 3.123c-1.054.606-2.495.25-3.17-.915l-6.694-9.927a2.292 2.292 0 0 1 .838-3.127z" fill="#2D3C4D"/></svg><svg width="96" height="96" fill="none" viewBox="0 0 96 96" id="1744" x="576" xmlns="http://www.w3.org/2000/svg"><path fill-rule="evenodd" clip-rule="evenodd" d="M36.03 61.405H78.67A1.33 1.33 0 0 0 80 60.073v-42.74c0-.736-.596-1.333-1.331-1.333H36.03c-.735 0-1.331.597-1.331 1.332v42.74c0 .736.596 1.333 1.33 1.333zm1.332-2.664h39.975V18.664H37.362v40.077zM35.594 79.89c.141.048.288.072.437.072.202 0 .405-.046.586-.139L63.204 66.68a1.333 1.333 0 0 0-1.18-2.39L36.651 76.831 19.123 39.773l12.096-5.168a1.333 1.333 0 0 0-1.043-2.451l-13.37 5.714a1.333 1.333 0 0 0-.721.752c-.126.34-.112.717.042 1.044l18.7 39.536c.155.322.429.57.767.69z" fill="#2D3C4D"/></svg><svg width="96" height="96" fill="none" viewBox="0 0 96 96" id="1776" x="672" xmlns="http://www.w3.org/2000/svg"><path fill-rule="evenodd" clip-rule="evenodd" d="M27.791 32.45a15.665 15.665 0 0 1 5.536-1.496v-1.818a5.633 5.633 0 0 1 2.921-4.937c.937-.625 1.445-1.56 1.445-2.568a2.969 2.969 0 0 0-5.936 0 1.337 1.337 0 0 1-2.676 0c0-3.105 2.531-5.631 5.645-5.631 3.111 0 5.642 2.526 5.642 5.63 0 1.92-.966 3.69-2.584 4.734-.01.006-.045.03-.085.059a2.47 2.47 0 0 1-.161.11 2.972 2.972 0 0 0-1.536 2.6v1.82c1.923.159 3.815.659 5.545 1.502.147.018.293.062.431.133.453.226 1.51.54 2.545.847l.05.015c2.745.814 4.612 1.418 5.511 2.341.053.046 2.448 2.294 2.795 5.551l.396 3.724a1.33 1.33 0 0 1-.872 1.394l-4.505 1.64v24.017a1.337 1.337 0 0 1-2.675 0V47.165c0-.56.353-1.06.88-1.255l4.404-1.602-.284-2.686c-.238-2.234-1.985-3.905-2.004-3.922-.519-.534-2.955-1.26-4.323-1.668l-.08-.024-.07-.021c-.58-.174-1.12-.335-1.602-.492-1.608 3.74-4.063 6.293-7.003 7.257a1.995 1.995 0 0 1-.987 0c-2.94-.959-5.394-3.514-7.001-7.257-.503.166-1.065.334-1.672.513-1.354.4-3.874 1.148-4.355 1.642h-.001c-.079.075-1.82 1.74-2.056 3.97l-.287 2.702 4.181 1.593c.517.2.86.7.86 1.253v27.536h20.063c.738 0 1.337.598 1.337 1.335s-.599 1.335-1.337 1.335H22.485a1.337 1.337 0 0 1-1.338-1.335V48.086l-4.285-1.631a1.326 1.326 0 0 1-.854-1.389l.396-3.724c.346-3.24 2.718-5.48 2.845-5.6l.001-.001c.848-.873 2.716-1.48 5.46-2.29l.05-.016c1.036-.308 2.092-.621 2.545-.847.153-.079.318-.125.486-.139zm1.857 2.091c1.272 2.845 3.043 4.794 5.033 5.568 1.873-.682 3.702-2.699 4.962-5.582-3.165-1.303-6.832-1.295-9.995.014zm30.289 45.586h13.541c.741 0 1.338-.596 1.34-1.335 0-33.958 4.96-43.276 5.005-43.356.118-.203.177-.432.177-.664V20.056c0-.737-.6-1.335-1.338-1.335H59.936c-.738 0-1.337.598-1.337 1.334v58.737c0 .737.6 1.335 1.338 1.335zM77.325 21.39v2.54H65.37c-.739 0-1.338.598-1.338 1.334 0 .737.6 1.335 1.338 1.335h11.955v7.855c-.931 1.94-5.064 12.29-5.182 43.003H61.274V21.39h16.05z" fill="#2D3C4D"/></svg><svg width="96" height="96" fill="none" viewBox="0 0 96 96" id="1784" x="768" xmlns="http://www.w3.org/2000/svg"><path fill-rule="evenodd" clip-rule="evenodd" d="M47.187 56.04a1.334 1.334 0 0 1-1.334-1.333 2.402 2.402 0 0 0-2.397-2.403 2.402 2.402 0 0 0-2.397 2.403 1.334 1.334 0 0 1-2.666 0 2.404 2.404 0 0 0-2.4-2.403 2.402 2.402 0 0 0-2.397 2.403 1.334 1.334 0 0 1-2.667 0 2.402 2.402 0 0 0-2.397-2.403 2.402 2.402 0 0 0-2.397 2.403c0 .736-.597 1.334-1.333 1.334h-7.469A1.334 1.334 0 0 1 16 54.706v-7.476c0-.736.597-1.333 1.333-1.333a2.402 2.402 0 0 0 2.397-2.403 2.402 2.402 0 0 0-2.397-2.403 1.334 1.334 0 0 1 0-2.667 2.402 2.402 0 0 0 2.397-2.403 2.402 2.402 0 0 0-2.397-2.403 1.334 1.334 0 0 1 0-2.668 2.402 2.402 0 0 0 0-4.803A1.334 1.334 0 0 1 16 24.815v-7.482c0-.736.597-1.333 1.333-1.333h7.464c.735 0 1.333.597 1.333 1.334a2.402 2.402 0 0 0 2.397 2.402 2.402 2.402 0 0 0 2.397-2.402 1.334 1.334 0 0 1 2.666 0 2.402 2.402 0 0 0 2.398 2.402c1.322 0 2.4-1.077 2.4-2.402a1.334 1.334 0 0 1 2.666 0 2.402 2.402 0 0 0 2.397 2.402 2.402 2.402 0 0 0 2.397-2.402c0-.737.598-1.334 1.333-1.334h7.464c.736 0 1.333.597 1.333 1.334v7.475c0 .736-.597 1.334-1.333 1.334a2.401 2.401 0 0 0 0 4.803 1.334 1.334 0 0 1 0 2.667 2.402 2.402 0 0 0-2.397 2.403 2.402 2.402 0 0 0 2.397 2.403 1.334 1.334 0 0 1 0 2.667 2.402 2.402 0 0 0-2.397 2.403 2.402 2.402 0 0 0 2.397 2.403 1.334 1.334 0 0 1 0 2.667 5.073 5.073 0 0 1-5.064-5.07c0-1.477.635-2.81 1.645-3.736a5.065 5.065 0 0 1 0-7.473 5.065 5.065 0 0 1-1.645-3.737 5.08 5.08 0 0 1 3.73-4.891v-4.985H48.34a5.073 5.073 0 0 1-4.888 3.737 5.042 5.042 0 0 1-3.73-1.646 5.057 5.057 0 0 1-7.464 0 5.056 5.056 0 0 1-3.73 1.646 5.076 5.076 0 0 1-4.888-3.737h-4.973v4.985a5.078 5.078 0 0 1 3.73 4.891 5.056 5.056 0 0 1-1.644 3.737 5.065 5.065 0 0 1 0 7.473 5.065 5.065 0 0 1 1.645 3.736 5.084 5.084 0 0 1-3.73 4.894v4.985h4.972a5.073 5.073 0 0 1 4.888-3.736c1.474 0 2.805.634 3.73 1.645a5.055 5.055 0 0 1 7.464 0 5.05 5.05 0 0 1 3.73-1.645 5.073 5.073 0 0 1 5.064 5.07 1.325 1.325 0 0 1-1.328 1.339zm-11.17-14.532c-3.85 0-6.869-4.03-6.869-9.172 0-4.518 2.44-7.01 6.869-7.01s6.869 2.492 6.869 7.01c0 5.142-3.019 9.172-6.869 9.172zm-4.202-9.175c0-3.003 1.296-4.342 4.202-4.342 2.906 0 4.202 1.339 4.202 4.342 0 3.526-1.925 6.505-4.202 6.505s-4.202-2.98-4.202-6.505zM43.534 46.81c-.28 0-.566-.088-.808-.272-1.299-.99-3.944-1.627-6.736-1.627-2.77 0-5.402.63-6.708 1.608a1.334 1.334 0 0 1-1.598-2.136c1.792-1.34 4.896-2.14 8.306-2.14 3.443 0 6.565.814 8.352 2.17a1.335 1.335 0 0 1-.808 2.397zm14.641 22.224c0 5.996 4.877 10.874 10.874 10.874 5.994 0 10.874-4.878 10.871-10.874 0-5.998-4.877-10.876-10.871-10.876-.12 0-.238.016-.349.046-.711-4.284-4.442-7.559-8.92-7.559-4.989 0-9.044 4.06-9.044 9.047 0 4.464 3.252 8.182 7.51 8.913-.046.135-.07.28-.07.43zm2.619-.355a9.093 9.093 0 0 1-2.548-.074 1.334 1.334 0 0 1 2.548.074zm7.961-7.886c.095.021.193.032.294.032 4.522 0 8.205 3.683 8.205 8.21 0 4.523-3.683 8.206-8.205 8.206-4.525 0-8.207-3.683-8.207-8.207 0-.123-.017-.242-.048-.355 4.146-.465 7.455-3.75 7.961-7.886zm0 0a9.096 9.096 0 0 0-.055-2.589 1.335 1.335 0 0 0 .055 2.589zm4.536-10.201a6.714 6.714 0 0 1-6.706-6.708c0-3.7 3.008-6.71 6.706-6.71 3.699 0 6.709 3.01 6.709 6.71s-3.01 6.708-6.709 6.708zm-4.04-6.705a4.046 4.046 0 0 1 4.04-4.044c2.23 0 4.043 1.811 4.043 4.044a4.047 4.047 0 0 1-4.043 4.04 4.046 4.046 0 0 1-4.04-4.04zM53.403 59.694a6.388 6.388 0 0 1 6.378-6.38c3.515 0 6.376 2.862 6.376 6.38a6.381 6.381 0 0 1-6.376 6.377 6.384 6.384 0 0 1-6.378-6.377zm-9.428 20.291a6.716 6.716 0 0 1-6.71-6.707c0-3.7 3.011-6.71 6.71-6.71 3.698 0 6.708 3.01 6.708 6.71 0 3.699-3.01 6.707-6.708 6.707zm-4.043-6.707a4.047 4.047 0 0 1 4.043-4.044 4.047 4.047 0 0 1 4.042 4.044 4.047 4.047 0 0 1-4.042 4.04 4.047 4.047 0 0 1-4.043-4.04z" fill="#2D3C4D"/></svg><svg width="96" height="96" fill="none" viewBox="0 0 96 96" id="1826" x="864" xmlns="http://www.w3.org/2000/svg"><path fill-rule="evenodd" clip-rule="evenodd" d="M58.728 26.71h10.624v-9.378a1.332 1.332 0 0 1 2.662 0V31.99a1.332 1.332 0 0 1-2.662 0v-2.616H58.728v2.736a1.332 1.332 0 1 1-2.662 0V17.452a1.332 1.332 0 0 1 2.662 0v9.258zm5.31 40.003c1.863 0 3.651-.32 5.314-.909v12.824a1.332 1.332 0 0 0 2.662 0V64.574C76.784 61.81 80 56.646 80 50.742c0-8.809-7.158-15.971-15.961-15.971s-15.961 7.162-15.961 15.971c0 5.905 3.216 11.07 7.988 13.833v14.053a1.332 1.332 0 0 0 2.662 0V65.805c1.662.588 3.45.908 5.31.908zm1.327 5.237h-2.668a1.332 1.332 0 0 1 0-2.664h2.668a1.332 1.332 0 0 1 0 2.664zm-.115 5.322h-2.553a1.332 1.332 0 0 1 0-2.664h2.553a1.332 1.332 0 0 1 0 2.664zM64.04 37.434c-7.334 0-13.3 5.97-13.3 13.308s5.966 13.307 13.3 13.307c7.334 0 13.299-5.969 13.299-13.307s-5.965-13.308-13.3-13.308zm3.128 18.334a1.33 1.33 0 1 0 1.932-1.832l-3.758-3.972v-7.349a1.332 1.332 0 0 0-2.662 0v7.88c0 .34.13.668.364.916l4.124 4.357zm-4.582-34.42h2.748a1.332 1.332 0 0 0 0-2.664h-2.748a1.332 1.332 0 0 0 0 2.665zM47.032 69.317c-.014 0-.032.002-.054 0H17.332a1.33 1.33 0 0 1-1.307-1.583l5.59-29.19a1.33 1.33 0 0 1 1.307-1.082h4.076c.337-4.796 1.096-8.102 2.662-9.672.705-.706 1.584-1.079 2.536-1.079 3.692 0 4.769 4.194 5.083 10.751h3.968c.636 0 1.182.45 1.304 1.074l5.665 28.836c.093.184.147.389.147.61a1.33 1.33 0 0 1-1.331 1.335zM26.76 46.864c-.005-2.45.02-4.701.097-6.74h-2.836L18.94 66.653h26.422l-5.209-26.527h-2.786c.042 2.016.042 4.201.042 6.515a1.332 1.332 0 0 1-2.662 0c0-2.16 0-4.397-.049-6.515h-5.181c-.104 2.584-.098 5.071-.094 6.733a1.332 1.332 0 0 1-1.331 1.335 1.335 1.335 0 0 1-1.331-1.33zm2.905-9.403h4.938c-.23-4.585-.832-8.087-2.408-8.087-.175 0-.388.038-.652.296-1.084 1.087-1.617 4.298-1.878 7.791zm-5.455 25.273c0 .735.596 1.331 1.33 1.331h13.31a1.332 1.332 0 0 0 0-2.663h-13.31c-.734 0-1.33.596-1.33 1.332z" fill="#2D3C4D"/></svg><svg width="96" height="96" fill="none" viewBox="0 0 96 96" id="1847" x="960" xmlns="http://www.w3.org/2000/svg"><path fill-rule="evenodd" clip-rule="evenodd" d="M62.466 52.167h15.89c.8 0 1.45.618 1.45 1.387v11.19c0 .766-.65 1.387-1.45 1.387H75.33l-2.074 15.435c-.093.694-.707 1.212-1.438 1.212H49.876c-.719 0-1.328-.504-1.432-1.181L46.028 66.13h-2.575c-.8 0-1.45-.621-1.45-1.387V53.548c0-.765.65-1.387 1.45-1.387h16.113v-3.626a1.426 1.426 0 0 1-1.227.985s-.551.052-1.447.052c-2.709 0-7.752-.471-11.073-3.645-4.492-4.295-3.79-11.67-3.758-11.981.066-.658.614-1.18 1.302-1.246 0 0 .55-.053 1.447-.053 2.709 0 7.752.472 11.073 3.646 2.5 2.39 3.39 5.73 3.683 8.28V31.887a1.426 1.426 0 0 1-1.227.985s-.551.053-1.447.053c-2.709 0-7.752-.472-11.073-3.646-4.492-4.295-3.79-11.67-3.758-11.98.066-.658.614-1.18 1.302-1.246 0 0 .55-.053 1.447-.053 2.709 0 7.752.472 11.073 3.646 2.5 2.392 3.39 5.732 3.683 8.282v-10.18c0-.766.65-1.387 1.45-1.387.8 0 1.45.621 1.45 1.387v18.296c.319-2.52 1.224-5.744 3.654-8.069 3.318-3.171 8.361-3.646 11.073-3.646.896 0 1.447.053 1.447.053.687.067 1.235.588 1.302 1.246.032.31.734 7.683-3.758 11.98-3.318 3.172-8.362 3.646-11.073 3.646-.896 0-1.447-.052-1.447-.052a1.443 1.443 0 0 1-1.198-.888v11.853zm-27.5 2.982h-7.171V44c0-.06-.016-.114-.032-.169a1.084 1.084 0 0 1-.023-.093c2.534-.646 4.422-2.871 4.422-5.535V24.066c0-.766-.65-1.388-1.45-1.388-.8 0-1.45.622-1.45 1.388v14.139c0 1.637-1.348 2.966-3.007 2.966s-3.01-1.329-3.01-2.966v-16.35h3.146c.8 0 1.45-.622 1.45-1.388 0-.766-.65-1.387-1.45-1.387h-4.596c-.801 0-1.45.621-1.45 1.387v17.738c0 2.725 1.969 5.003 4.596 5.588-.005.029-.012.056-.02.083-.012.041-.023.082-.023.125v11.151H17.45c-.8 0-1.45.622-1.45 1.387v13.407c0 .353.142.694.394.952l8.828 8.97c.273.275.647.43 1.039.436h.017c.389 0 .763-.15 1.033-.414l8.688-8.446c.267-.26.418-.61.418-.974V56.54c0-.77-.65-1.39-1.45-1.39zm-1.45 14.75l-7.215 7.014-7.4-7.519v-11.47h5.994v6.015c0 .766.65 1.387 1.45 1.387.8 0 1.45-.621 1.45-1.387v-6.015h5.722v11.975zm34.655-39.965c2.63-2.514 7.05-2.827 8.929-2.833-.009 2.009-.374 6.065-2.964 8.543-2.63 2.514-7.05 2.827-8.93 2.833.006-2.006.372-6.063 2.965-8.543zM44.907 18.777c.012 2.012.38 6.074 2.962 8.543 2.627 2.514 7.041 2.822 8.926 2.833-.011-2.011-.38-6.073-2.96-8.543-2.628-2.514-7.045-2.822-8.928-2.833zm2.962 25.19c-2.582-2.469-2.95-6.53-2.962-8.542 1.883.01 6.3.319 8.927 2.833 2.581 2.469 2.95 6.531 2.961 8.543-1.882-.012-6.299-.32-8.926-2.833zm26.185 19.39h2.848V54.94h-32v8.415h21.913c.8 0 1.45.622 1.45 1.388 0 .766-.65 1.387-1.45 1.387H48.96l2.166 13.873h19.417l2.073-15.435c.093-.694.708-1.213 1.439-1.213z" fill="#2D3C4D"/></svg><svg width="96" height="96" fill="none" viewBox="0 0 96 96" id="1984" x="1056" xmlns="http://www.w3.org/2000/svg"><path fill-rule="evenodd" clip-rule="evenodd" d="M56.987 65.783a1.31 1.31 0 0 0 1.01.133c.342-.093.635-.314.809-.62l21.013-36.353a1.325 1.325 0 0 0-.485-1.82l-4.747-2.735a1.336 1.336 0 0 0-1.821.488c-1.15 1.982-3.672 2.674-5.888 1.395-3.08-1.776-1.632-5.001-1.312-5.627a1.33 1.33 0 0 0-.52-1.758l-4.7-2.709a1.337 1.337 0 0 0-1.82.488l-21.014 36.35A1.33 1.33 0 0 0 38 54.834l18.987 10.949zm-15.87 14.278a1.332 1.332 0 0 0 1.013-.245l12.222-9.1c.592-.44.712-1.27.272-1.862a1.322 1.322 0 0 0-1.864-.272l-11.115 8.275-22.467-32.413 16.568-11.847 4.352 6.808c.398.62 1.222.793 1.843.405.619-.397.8-1.22.405-1.84l-5.109-7.991a1.332 1.332 0 0 0-1.901-.365l-18.78 13.429a1.328 1.328 0 0 0-.32 1.838l24.001 34.624c.206.298.523.5.88.556zm20.197-24.423l-4.146 7.173-16.68-9.618 4.147-7.173a1.7 1.7 0 0 0 .032.02l2.376 1.368a1.343 1.343 0 0 0 1.824-.49 1.338 1.338 0 0 0-.491-1.822L46 43.727a1.8 1.8 0 0 0-.03-.016l14.2-24.567 2.529 1.457c-.947 2.8-.43 6.083 2.848 7.972 3.037 1.755 6.65 1.116 8.75-1.281l2.552 1.473-14.2 24.564-.015-.01a3.676 3.676 0 0 0-.02-.011l-2.377-1.37a1.34 1.34 0 0 0-1.824.49 1.338 1.338 0 0 0 .491 1.823l2.376 1.369.02.01.014.008zm-5.327-4.613a1.345 1.345 0 0 1-1.824.49l-2.376-1.369a1.338 1.338 0 0 1-.491-1.822 1.34 1.34 0 0 1 1.824-.49l2.376 1.37c.637.37.856 1.182.49 1.821z" fill="#2D3C4D"/></svg><svg width="96" height="96" fill="none" viewBox="0 0 96 96" id="201" x="1152" xmlns="http://www.w3.org/2000/svg"><path fill-rule="evenodd" clip-rule="evenodd" d="M48.98 26.448c-.11.132-.239.236-.377.312a1.24 1.24 0 0 1-.606.16c-.271 0-.546-.091-.78-.279-.067-.055-6.951-5.393-20.34-3.904-.73.114-1.385-.506-1.46-1.305-.074-.805.459-1.522 1.191-1.604 11.756-1.311 18.84 2.277 21.254 3.806 1.38-1.2 4.486-3.328 9.768-4.038v-2.133c0-.807.597-1.463 1.332-1.463h8.752c.735 0 1.332.656 1.332 1.463V19.8c3.137.425 6.482 1.138 9.955 2.125.589.17.999.752.999 1.416v49.678c0 .469-.205.913-.551 1.186a1.257 1.257 0 0 1-1.199.202c-20.534-7.487-29.326-.091-29.411-.018a1.289 1.289 0 0 1-.842.322c-.3 0-.602-.111-.844-.33-.077-.068-8.784-7.458-29.403.026-.405.143-.852.07-1.199-.202A1.51 1.51 0 0 1 16 73.018V23.34c0-.667.41-1.25.999-1.416a78.322 78.322 0 0 1 4.711-1.189c.717-.166 1.422.355 1.566 1.15.144.794-.325 1.563-1.046 1.721a76.716 76.716 0 0 0-3.567.876v46.534c17.573-5.882 26.663-1.34 29.34.466 2.69-1.8 11.82-6.351 29.334-.469V24.48c-2.886-.782-5.664-1.36-8.291-1.731V45.94c0 .6-.333 1.139-.837 1.361-.16.07-.325.103-.492.103a1.28 1.28 0 0 1-.967-.457l-3.457-4.01-3.38 3.79c-.38.428-.956.557-1.454.331-.5-.225-.831-.76-.831-1.355l.002-23.158c-6.048.91-8.623 3.87-8.65 3.903zm-2.312 38.934c0 .808.597 1.464 1.332 1.464.735 0 1.332-.656 1.332-1.464V31.447c0-.808-.597-1.463-1.332-1.463-.735 0-1.332.655-1.332 1.463v33.935zm-6.36-31.751H25.327c-.735 0-1.332-.656-1.332-1.464 0-.808.597-1.463 1.332-1.463h14.981c.735 0 1.332.655 1.332 1.463s-.597 1.464-1.332 1.464zm-14.981 5.853h14.981c.735 0 1.332-.656 1.332-1.463 0-.808-.597-1.464-1.332-1.464H25.327c-.735 0-1.332.656-1.332 1.464 0 .807.597 1.463 1.332 1.463zm8.033 5.853h-8.033c-.735 0-1.332-.655-1.332-1.463s.597-1.463 1.332-1.463h8.033c.735 0 1.331.655 1.331 1.463s-.596 1.463-1.331 1.463zm30.916-5.516c-.25-.29-.576-.574-.967-.457-.36 0-.7.158-.954.442l-2.061 2.315.003-23.194h6.088v23.34l-2.11-2.446z" fill="#2D3C4D"/></svg><svg width="96" height="96" fill="none" viewBox="0 0 96 96" id="239" x="1248" xmlns="http://www.w3.org/2000/svg"><path fill-rule="evenodd" clip-rule="evenodd" d="M47.664 16.401l11.063 11.273v-7.67c0-.737.599-1.334 1.336-1.334h7.955c.737 0 1.335.597 1.335 1.334v10.702a1.335 1.335 0 0 1-2.67 0v-9.368h-5.285v9.057l7.157 7.292a1.34 1.34 0 0 1-.02 1.89 1.342 1.342 0 0 1-1.89-.02L46.657 19.19 18.233 45.063a1.326 1.326 0 0 1-1.883-.085 1.33 1.33 0 0 1 .086-1.884L45.81 16.35a1.332 1.332 0 0 1 1.854.051zm-14.25 60.925h-8.123a1.335 1.335 0 0 1-1.335-1.334V44.079a1.335 1.335 0 0 1 2.67 0v30.578h6.788a1.335 1.335 0 0 1 0 2.669zm3.894-19.53v-1.919h-2.174a1.335 1.335 0 1 1 0-2.669h2.174v-1.921a3.486 3.486 0 0 1 3.482-3.483h28.301a3.486 3.486 0 0 1 3.485 3.483v2.132h6.089c.737 0 1.335.598 1.335 1.335v13.231c0 .737-.598 1.335-1.335 1.335h-22.72v5.45h4.062c.736 0 1.335.597 1.335 1.334v2.562a1.335 1.335 0 0 1-2.67 0v-1.228h-8.068v1.228a1.335 1.335 0 0 1-2.67 0v-2.562c0-.737.598-1.335 1.335-1.335h4.005v-6.784c0-.736.599-1.334 1.335-1.334h22.72V56.088h-4.753v1.708a3.49 3.49 0 0 1-3.487 3.483H40.79a3.486 3.486 0 0 1-3.482-3.483zm2.67-6.509c0-.448.366-.814.812-.814h28.301c.449 0 .815.366.815.814v6.51a.816.816 0 0 1-.815.813H40.79a.815.815 0 0 1-.812-.814v-6.509zM38.7 69.485a1.335 1.335 0 0 1-1.335-1.334v-2.834a1.335 1.335 0 0 1 2.67 0v2.834c0 .739-.598 1.334-1.335 1.334zm-1.335 6.507a1.335 1.335 0 0 0 2.67 0v-2.613a1.335 1.335 0 0 0-2.67 0v2.613z" fill="#2D3C4D"/></svg><svg width="96" height="96" fill="none" viewBox="0 0 96 96" id="2600" x="1344" xmlns="http://www.w3.org/2000/svg"><path fill-rule="evenodd" clip-rule="evenodd" d="M32 21.207v-1.744c0-.272 0-.562-.008-.794-.23-.005-.523-.005-.795-.005H27.47c-.272 0-.565 0-.794.005-.008.232-.008.525-.008.796v1.742H32zm-8 0v-1.744C24 16.58 24.584 16 27.47 16h3.727c2.886 0 3.47.583 3.47 3.463v1.744h2.778v-1.744c0-2.882.584-3.463 3.47-3.463h3.56c2.885 0 3.469.583 3.469 3.463v1.744h4.645a3.469 3.469 0 0 1 3.467 3.465v10.02a1.333 1.333 0 0 1-2.667 0v-10.02a.802.802 0 0 0-.8-.801H19.47a.803.803 0 0 0-.802.802v17.044a.8.8 0 0 0 .802.799h19.312c.736 0 1.334.596 1.334 1.331 0 .736-.598 1.332-1.334 1.332H19.47A3.47 3.47 0 0 1 16 41.717V24.673a3.472 3.472 0 0 1 3.47-3.466H24zm21.277 0h-5.165v-1.744c0-.272 0-.565.008-.794.23-.005.523-.005.795-.005h3.56c.272 0 .565 0 .794.005.008.232.008.522.008.793v1.745zM25.333 34.576H28V37.3a1.333 1.333 0 0 0 2.667 0v-2.724h2.666a1.333 1.333 0 0 0 0-2.664h-2.666v-2.546a1.333 1.333 0 0 0-2.667 0v2.546h-2.667a1.333 1.333 0 1 0 0 2.664zm13.334.032h7.944a1.331 1.331 0 1 0 0-2.664h-7.944a1.333 1.333 0 0 0 0 2.663zM58.723 80c-11.731 0-21.278-9.533-21.278-21.252 0-11.72 9.544-21.253 21.278-21.253C70.456 37.495 80 47.03 80 58.748S70.456 80 58.723 80zM40.112 58.75c0-10.252 8.35-18.589 18.61-18.589 10.262 0 18.611 8.337 18.611 18.587 0 10.249-8.349 18.591-18.61 18.591-10.262 0-18.611-8.34-18.611-18.589zm20.027-6.547c.887.195 1.707.58 2.417 1.11.063-.186.17-.362.319-.51l5.016-5.01a1.332 1.332 0 1 1 1.885 1.883l-5.016 5.01a1.305 1.305 0 0 1-.612.348 6.61 6.61 0 0 1 .93 2.384h7.909a1.333 1.333 0 0 1 0 2.664h-7.968a6.609 6.609 0 0 1-1.046 2.353c.287.034.565.16.784.38l5.016 5.013a1.332 1.332 0 1 1-1.885 1.883l-5.016-5.013a1.325 1.325 0 0 1-.377-.758 6.27 6.27 0 0 1-2.356 1.067v7.91a1.333 1.333 0 0 1-2.667 0v-7.91a6.273 6.273 0 0 1-2.36-1.07 1.325 1.325 0 0 1-.379.76l-5.016 5.014a1.34 1.34 0 0 1-1.885 0 1.332 1.332 0 0 1 0-1.883l5.016-5.013c.22-.22.5-.347.788-.38a6.603 6.603 0 0 1-1.046-2.353h-7.969a1.333 1.333 0 1 1 0-2.664h7.91a6.609 6.609 0 0 1 .932-2.385 1.341 1.341 0 0 1-.615-.348l-5.016-5.01a1.332 1.332 0 1 1 1.885-1.883l5.016 5.01c.15.15.256.326.32.513a6.272 6.272 0 0 1 2.419-1.112v-7.618a1.333 1.333 0 0 1 2.667 0v7.618zm-5.046 6.403c0-2.141 1.664-3.883 3.712-3.883 2.046 0 3.712 1.742 3.712 3.883 0 2.142-1.664 3.881-3.712 3.881s-3.712-1.74-3.712-3.88z" fill="#2D3C4D"/></svg><svg width="96" height="96" fill="none" viewBox="0 0 96 96" id="289" x="1440" xmlns="http://www.w3.org/2000/svg"><path fill-rule="evenodd" clip-rule="evenodd" d="M72.003 48.262h6.593a1.332 1.332 0 0 0 1.028-2.175l-8.074-9.774h3.742a1.33 1.33 0 0 0 1.087-2.1l-5.13-7.263h.757c.512 0 .978-.293 1.202-.753a1.332 1.332 0 0 0-.163-1.409l-6.664-8.317c-.51-.63-1.655-.625-2.156 0l-6.656 8.317a1.33 1.33 0 1 0 1.04 2.162h.753l-4.44 6.288a1.328 1.328 0 0 0 .32 1.853c.6.426 1.431.288 1.855-.32l5.924-8.385a1.331 1.331 0 0 0-1.087-2.101h-.555l3.928-4.901 3.925 4.901h-.557a1.33 1.33 0 0 0-1.087 2.1l5.13 7.263H68.72c-.514 0-.986.296-1.204.764a1.327 1.327 0 0 0 .176 1.414l8.074 9.773h-3.763a1.332 1.332 0 1 0 0 2.663zm-53.338-6.635v14.621h6.653a1.332 1.332 0 1 1 0 2.663h-6.653v7.896c0 2.22 1.809 4.028 4.031 4.028h5.463a1.332 1.332 0 1 1 0 2.662h-5.463c-3.693 0-6.696-3-6.696-6.69v-25.18c0-3.743 3.048-6.789 6.795-6.789h12.582c24.569 0 37.42 16.094 37.42 31.99a6.542 6.542 0 0 1-1.374 4.007h7.245c.735 0 1.332.597 1.332 1.331v3.938a1.332 1.332 0 1 1-2.665 0v-2.607H49.831a1.332 1.332 0 1 1 0-2.662h16.14c2.334 0 4.162-1.76 4.162-4.007 0-2.663-.399-5.333-1.19-7.917H57.377a1.332 1.332 0 1 1 0-2.663h10.598c-4.384-10.367-15.401-18.747-32.597-18.747H22.794a4.134 4.134 0 0 0-4.13 4.126zm20.32 38.43c-4.044 0-7.335-3.383-7.335-7.54 0-4.155 3.29-7.539 7.335-7.539s7.336 3.384 7.336 7.54c0 4.156-3.293 7.54-7.336 7.54zm0-12.417c-2.576 0-4.67 2.189-4.67 4.878s2.094 4.877 4.67 4.877c2.577 0 4.672-2.188 4.672-4.877 0-2.69-2.095-4.878-4.672-4.878zm11.496-8.652H32.478a3.121 3.121 0 0 1-3.12-3.118v-6.882a3.319 3.319 0 0 1 3.315-3.312h7.338c5.51 0 13.686 4.242 13.686 10.099a3.217 3.217 0 0 1-3.216 3.213zm-18.456-10c0-.359.29-.65.65-.65h3.569v7.988H32.48a.457.457 0 0 1-.456-.456v-6.882zm7.989-.65h-1.106v7.988h11.575a.553.553 0 0 0 .552-.551c0-4.034-6.768-7.436-11.021-7.436z" fill="#2D3C4D"/></svg><svg width="96" height="96" fill="none" viewBox="0 0 96 96" id="31" x="1536" xmlns="http://www.w3.org/2000/svg"><path fill-rule="evenodd" clip-rule="evenodd" d="M29.242 55.972h4.372a1.335 1.335 0 0 0 0-2.67H18.666V18.67h53.34v28.038c0 .737.597 1.336 1.333 1.336s1.333-.599 1.333-1.336V17.335c0-.737-.597-1.335-1.333-1.335H17.333c-.736 0-1.333.598-1.333 1.335v37.301c0 .737.597 1.336 1.333 1.336h9.053l-2.36 6.21a1.34 1.34 0 0 0 .773 1.726 1.338 1.338 0 0 0 1.722-.774l2.72-7.162zm30.745-8.043h3.668a3.475 3.475 0 0 0 3.468-3.474V41.58a3.475 3.475 0 0 0-3.468-3.474H53.63a3.476 3.476 0 0 0-3.468 3.474v2.874a3.474 3.474 0 0 0 3.468 3.474h3.691v2.785H40.654a3.476 3.476 0 0 0-3.468 3.474v22.225a3.476 3.476 0 0 0 3.468 3.474h35.878A3.476 3.476 0 0 0 80 76.413V54.188a3.476 3.476 0 0 0-3.468-3.474H59.987v-2.785zM39.851 61.374h9.227a10.874 10.874 0 0 0-.729 3.928c0 5.863 4.62 10.633 10.297 10.633 5.678 0 10.3-4.772 10.3-10.633 0-5.862-4.62-10.63-10.3-10.63-3.265 0-6.18 1.576-8.068 4.031H39.851v-4.515c0-.444.36-.804.803-.804h35.878c.443 0 .802.36.802.804v4.502H71.77a1.335 1.335 0 0 0 0 2.67h5.565v15.053c0 .443-.36.803-.802.803H40.654a.804.804 0 0 1-.803-.803v-15.04zM53.632 40.78a.804.804 0 0 0-.802.804v2.873c0 .444.36.804.802.804h10.026c.442 0 .802-.36.802-.804v-2.873a.804.804 0 0 0-.802-.804H53.632zM51.015 65.3c0-4.387 3.422-7.96 7.631-7.96 4.21 0 7.634 3.573 7.634 7.96 0 4.39-3.425 7.963-7.634 7.963-4.209 0-7.631-3.57-7.631-7.963z" fill="#2D3C4D"/></svg><svg width="96" height="96" fill="none" viewBox="0 0 96 96" id="322" x="1632" xmlns="http://www.w3.org/2000/svg"><path fill-rule="evenodd" clip-rule="evenodd" d="M24.056 54.392v-36c0-.768.597-1.392 1.333-1.392h45.334c.736 0 1.333.624 1.333 1.393v36.01l7.803 16.36c.093.193.141.405.141.62v5.599c0 .771-.597 1.393-1.333 1.393H17.333c-.736 0-1.333-.624-1.333-1.393v-5.725c0-.22.05-.435.147-.633l7.909-16.232zm-4.547 15.472h18.803l1.784-4.633a1.336 1.336 0 0 1 1.237-.872H54.71c.512 0 .979.307 1.203.788l2.165 4.717h15.214c.736 0 1.333.624 1.333 1.393s-.595 1.396-1.333 1.396H57.237c-.512 0-.978-.307-1.202-.789l-2.166-4.719H42.235l-1.784 4.633a1.336 1.336 0 0 1-1.238.872H18.667v2.942h58.666V71.71l-7.437-15.592h-39.23c-.735 0-1.333-.624-1.333-1.393 0-.77.598-1.393 1.334-1.393h38.722V19.786H26.723v34.86a1.434 1.434 0 0 1-.173.766l-7.04 14.452zM34.667 46.25c0 .77.597 1.393 1.333 1.393s1.333-.624 1.333-1.393v-5.148c0-.769-.597-1.393-1.333-1.393s-1.333.624-1.333 1.393v5.148zm6.666 1.393c-.736 0-1.333-.624-1.333-1.393v-8.22c0-.77.597-1.394 1.333-1.394s1.334.624 1.334 1.393v8.221c0 .77-.598 1.393-1.334 1.393zm4.056-1.393c0 .77.598 1.393 1.334 1.393.736 0 1.333-.624 1.333-1.393v-5.148c0-.769-.597-1.393-1.333-1.393s-1.334.624-1.334 1.393v5.148zM52 47.644c-.736 0-1.333-.624-1.333-1.393v-16.59c0-.768.597-1.392 1.333-1.392s1.333.624 1.333 1.393v16.59c0 .768-.597 1.392-1.333 1.392zm4-1.393c0 .77.597 1.393 1.333 1.393s1.334-.624 1.334-1.393V37.34c0-.768-.598-1.393-1.334-1.393-.736 0-1.333.625-1.333 1.393v8.912z" fill="#2D3C4D"/></svg><svg width="96" height="96" fill="none" viewBox="0 0 96 96" id="356" x="1728" xmlns="http://www.w3.org/2000/svg"><path fill-rule="evenodd" clip-rule="evenodd" d="M24.2 37.867l8.23-8.422H21.06c-1.604 0-2.874-.488-3.78-1.448-1.364-1.445-1.284-3.365-1.273-3.578l-.003-3.475c-.01-.13-.088-2.05 1.276-3.496.906-.96 2.176-1.448 3.78-1.448h29.792c1.604 0 2.875.488 3.778 1.448 1.364 1.445 1.284 3.365 1.273 3.579l.003 3.474c.01.131.088 2.051-1.276 3.496-.9.96-2.174 1.448-3.778 1.448H36.164l-7.836 8.016h15.104l-3.083-3.208a1.324 1.324 0 0 1 .04-1.882 1.332 1.332 0 0 1 1.888.04l5.257 5.464a1.331 1.331 0 0 1-.965 2.256H25.157a1.332 1.332 0 1 1-.957-2.264zm31.607 6.28a1.336 1.336 0 0 0 1.337 1.298h.032a1.34 1.34 0 0 0 1.304-1.365c-.002-.088-.141-9.01 5.207-14.981a1.33 1.33 0 0 0-.107-1.883 1.339 1.339 0 0 0-1.888.107c-6.062 6.77-5.896 16.416-5.885 16.824zM73.713 80c-3.596-.003-7.355-4.155-9.724-10.664H50.454c-2.623 7.21-6.808 11.392-10.597 10.557-4.706-1.018-6.59-9.44-4.382-19.592 2.18-10.016 7.495-17.082 12.128-16.05 1.557.338 2.872 1.626 3.84 3.746H63.11c.952-2.117 2.27-3.405 3.84-3.746 4.63-1.04 9.951 6.034 12.13 16.05 2.21 10.152.324 18.574-4.382 19.592-.32.07-.652.107-.984.107zM49.502 66.67h15.436c.577 0 1.085.367 1.27.914 2.275 6.827 5.738 10.173 7.92 9.707 2.663-.579 4.23-7.723 2.34-16.419-1.918-8.803-6.276-14.597-8.953-14.013-.8.173-1.639 1.272-2.251 2.936-.19.522-.692.872-1.254.872H50.55a1.34 1.34 0 0 1-1.254-.867c-.626-1.67-1.47-2.77-2.262-2.944-2.602-.587-7.032 5.213-8.95 14.013-1.89 8.699-.323 15.84 2.34 16.419 2.056.448 5.514-2.877 7.808-9.71.184-.54.698-.909 1.27-.909zm2.457-6.625h2.72c.737 0 1.336-.597 1.336-1.333s-.599-1.333-1.337-1.333H51.96v-2.712c0-.736-.599-1.334-1.337-1.334s-1.337.598-1.337 1.334v2.712H46.57c-.738 0-1.337.597-1.337 1.333s.599 1.333 1.337 1.333h2.716v2.71c0 .736.6 1.333 1.337 1.333.74 0 1.337-.595 1.337-1.333v-2.71zm6.634-1.261c0 2.923 2.385 5.304 5.318 5.304s5.318-2.381 5.318-5.304c0-2.923-2.387-5.304-5.318-5.304-2.93 0-5.318 2.381-5.318 5.304zm5.318-2.637a2.642 2.642 0 0 0-2.644 2.637 2.642 2.642 0 0 0 2.644 2.637 2.642 2.642 0 0 0 2.644-2.637 2.642 2.642 0 0 0-2.644-2.637zm-42.85-37.48c-.83 0-1.442.2-1.824.597-.586.605-.563 1.568-.562 1.61l.003 3.63c-.003.08-.037 1.062.559 1.68.382.395.995.597 1.824.597h29.791c.834 0 1.452-.202 1.832-.608.566-.601.551-1.55.55-1.585v-.001l-.002-3.643c.003-.08.037-1.062-.559-1.683-.382-.394-.992-.594-1.82-.594H21.06zm3.157 5.013c.27.24.591.373.939.373.347 0 .695-.133.936-.4a1.25 1.25 0 0 0 .4-.933c0-.347-.133-.693-.4-.96a1.376 1.376 0 0 0-1.899.027c-.24.24-.374.589-.374.933 0 .344.133.693.398.96zm11.634.373c-.348 0-.668-.133-.938-.373-.239-.267-.399-.616-.399-.96s.16-.693.398-.933c.509-.507 1.394-.507 1.899 0 .243.24.377.586.377.933 0 .347-.134.693-.377.933-.265.267-.612.4-.96.4zm9.76-.397c.267.264.588.397.962.397.348 0 .695-.133.936-.4.24-.24.4-.589.4-.936 0-.346-.157-.69-.4-.957-.505-.48-1.364-.48-1.898.027a1.33 1.33 0 0 0-.375.933c0 .347.134.696.374.936z" fill="#2D3C4D"/></svg><svg width="96" height="96" fill="none" viewBox="0 0 96 96" id="378" x="1824" xmlns="http://www.w3.org/2000/svg"><path fill-rule="evenodd" clip-rule="evenodd" d="M27.99 34.522c-.245 0-.485-.064-.695-.19-.28-.166-6.806-4.131-8.327-9.027-1.151-3.716.558-7.813 3.73-8.95 1.944-.697 4.094-.337 5.34.805 1.246-1.142 3.396-1.502 5.337-.805 3.178 1.137 4.885 5.234 3.733 8.95-1.52 4.896-8.05 8.86-8.33 9.027a1.33 1.33 0 0 1-.691.19h-.097zm32.37 19.023c-5.64 0-10.227-6.218-10.227-13.864 0-6.711 3.634-10.408 10.227-10.408 6.594 0 10.224 3.697 10.224 10.408-.002 7.646-4.588 13.864-10.224 13.864zm-36.386 7.874h8.031V60.3c.032-2.102.689-3.773 1.954-4.987 2.018-1.936 4.844-1.895 4.93-1.888h1.963c-2.265-.422-3.952-2.878-3.952-5.935 0-2.955 1.739-4.716 4.65-4.716 2.913 0 4.652 1.761 4.652 4.716 0 3.21-1.86 5.755-4.294 5.983.57.156.989.676.989 1.293 0 .74-.603 1.34-1.346 1.34H38.86c-.73-.02-4.102.164-4.164 4.215v1.097h2.678c.743 0 1.346.6 1.346 1.34 0 .74-.6 1.34-1.346 1.34H22.63c-.743 0-1.346-.6-1.346-1.34V38.71c0-.74.603-1.34 1.346-1.34H46.85c.743 0 1.346.6 1.346 1.34 0 .74-.603 1.34-1.346 1.34H23.974V61.42zM39.592 47.49c0-1.504.514-2.035 1.959-2.035s1.96.533 1.96 2.035c0 1.954-1.034 3.319-1.96 3.319-.926 0-1.96-1.365-1.96-3.32zm13.233-7.81c0-5.271 2.395-7.727 7.535-7.727 5.138 0 7.53 2.456 7.533 7.727 0 6.166-3.38 11.182-7.533 11.182-4.155 0-7.535-5.016-7.535-11.182zm18.303 40.562c-.073 0-.145-.006-.218-.02a1.339 1.339 0 0 1-1.111-1.535c.51-3.162 1.178-7.671 1.305-11.77H49.563c.148 4.236.923 9.059 1.362 11.772a1.347 1.347 0 0 1-1.117 1.536c-.727.1-1.424-.383-1.542-1.112-.495-3.075-1.416-8.805-1.416-13.537 0-.74.603-1.34 1.346-1.34h24.278c.742 0 1.345.6 1.345 1.34 0 4.62-.778 9.939-1.364 13.54a1.344 1.344 0 0 1-1.327 1.126zm-29.593-1.175a1.345 1.345 0 0 0 1.332 1.175c.054 0 .11-.003.167-.006a1.345 1.345 0 0 0 1.17-1.496l-.26-1.99c-.515-3.841-1.152-8.624-.477-11.372 2.255-9.183 10.878-9.322 11.382-9.322h.016c.737 0 1.343-.596 1.348-1.33a1.342 1.342 0 0 0-1.327-1.351h-.008c-.312 0-11.26.115-14.021 11.362-.796 3.227-.128 8.252.412 12.31l.007.055.259 1.965zm36.321 1.172a1.341 1.341 0 0 1-1.34-1.504c.495-4.003 1.238-10.052.439-13.309-2.26-9.193-10.534-9.313-11.177-9.322h-.038c-.735 0-1.337-.59-1.346-1.324a1.344 1.344 0 0 1 1.33-1.357h.008c.312 0 11.072.115 13.836 11.362.919 3.732.169 9.808-.38 14.255l-.002.02a1.336 1.336 0 0 1-1.33 1.179zm-60.51-8.078h18.78c.742 0 1.345-.6 1.345-1.34 0-.74-.603-1.341-1.346-1.341h-18.78c-.742 0-1.345.6-1.345 1.34 0 .74.603 1.34 1.346 1.34zm6.265-53.284c.382-.136.788-.209 1.179-.209.63 0 1.72.188 1.913 1.443a1.352 1.352 0 0 0 2.667.002c.197-1.257 1.287-1.445 1.92-1.445.387 0 .793.073 1.178.21 1.833.656 2.801 3.286 2.072 5.635-.974 3.134-4.93 6.046-6.5 7.102-1.57-1.054-5.527-3.968-6.499-7.102-.729-2.349.237-4.981 2.07-5.636z" fill="#2D3C4D"/></svg><svg width="96" height="96" fill="none" viewBox="0 0 96 96" id="395" x="1920" xmlns="http://www.w3.org/2000/svg"><path fill-rule="evenodd" clip-rule="evenodd" d="M27.998 33.101h.021c.728 0 1.32-.581 1.336-1.314.027-1.678.856-4.09 2.336-6.795 2.104-3.842 5.456-6.149 7.067-6.333a1.34 1.34 0 0 0 1.17-1.48 1.345 1.345 0 0 0-1.48-1.17c-2.973.346-6.885 3.655-9.098 7.703-1.73 3.168-2.63 5.87-2.664 8.035a1.336 1.336 0 0 0 1.312 1.354zm41.446 33.57c.01.025.136 1.016.03 2.451 1.711-.346 4.579-1.215 6.325-3.302 1.037-1.238 1.54-2.715 1.533-4.499-2.013-.205-3.861.243-4.32.867a1.33 1.33 0 0 1-1.861.293 1.331 1.331 0 0 1-.293-1.861c1.589-2.181 5.66-2.248 8.015-1.757.568.117.995.589 1.056 1.168.31 2.965-.395 5.495-2.093 7.511-2.683 3.193-7.075 4.12-8.833 4.37-.403 1.476-1.106 3.053-2.31 4.427C64.566 78.77 61.396 80 57.268 80a1.334 1.334 0 0 1 0-2.666c3.317 0 5.81-.923 7.41-2.739 2.68-3.042 2.123-7.709 2.115-7.754-.011-10.637-10.52-18.837-23.938-18.837-2.003 0-3.984.2-5.893.592a1.292 1.292 0 0 1-1.2-.352 1.338 1.338 0 0 1-.381-1.191l.88-4.795c.186-1.096.037-2.061-.459-2.85-1.672-2.678-6.888-2.579-11.383.234-2.302 1.437-4.099 3.35-5.056 5.381-.864 1.835-.92 3.517-.155 4.744 1.056 1.696 4.28 2.392 7.498 1.637.523-.09 2.704-.35 3.576 1.136.93 1.577-.55 3.477-1.046 4.112h.001c.002 0-.003.015-.014.044-.086.228-.5 1.33.033 2.713.597 1.547 2.514 3.8 8.269 5.739.541.18.906.69.906 1.264v8.172c0 .736-.597 1.334-1.333 1.334h-1.573c-1.422 0-2.301.432-2.301 2.584a1.334 1.334 0 0 1-2.667 0c0-3.336 1.81-5.25 4.968-5.25h.24v-5.9c-4.925-1.807-7.96-4.186-9.03-7.076-1.042-2.824.246-5.035.3-5.125.423-.552.645-.926.76-1.16a2.83 2.83 0 0 0-.574.024c-4.317 1.016-8.591-.136-10.277-2.84-1.261-2.019-1.261-4.61.006-7.293 1.17-2.488 3.322-4.797 6.055-6.501 3.139-1.96 6.474-2.805 9.291-2.563-.322-2.677 1.023-6.386 3.813-9.922 1.802-2.28 3.936-4.106 6.008-5.14 2.383-1.19 4.49-1.222 5.92-.091 2.738 2.162 1.74 7.671-2.318 12.818-1.525 1.933-3.624 3.655-4.96 4.546a1.332 1.332 0 1 1-1.477-2.219c1.17-.78 3.016-2.293 4.346-3.978 3.342-4.232 3.864-8.2 2.76-9.072-.554-.437-1.733-.282-3.08.387-1.7.848-3.562 2.453-5.1 4.402-3.342 4.232-3.867 8.2-2.763 9.072.035.028.07.058.102.09 1.035.533 1.897 1.296 2.514 2.283.837 1.344 1.122 2.976.824 4.725l-.539 2.93a32.377 32.377 0 0 1 4.504-.311c14.911 0 26.593 9.37 26.593 21.332zM28.02 45.534a1.867 1.867 0 1 0 0-3.733 1.867 1.867 0 0 0 0 3.733zm14.675 29.553c0 2.71 2.069 4.912 4.607 4.912a1.334 1.334 0 0 0 0-2.666c-1.072 0-1.941-1.008-1.941-2.246 0-1.213.853-2.162 1.941-2.162h5.968a1.334 1.334 0 0 0 0-2.667c-.883 0-5.29-.197-5.29-4.093 0-1.984.749-3.109 2.429-3.645a1.336 1.336 0 0 0 .864-1.677 1.346 1.346 0 0 0-1.678-.864c-2.8.899-4.282 3.037-4.282 6.186 0 1.718.539 3.085 1.419 4.128-2.307.288-4.038 2.29-4.038 4.794z" fill="#2D3C4D"/></svg><svg width="96" height="96" fill="none" viewBox="0 0 96 96" id="428" x="2016" xmlns="http://www.w3.org/2000/svg"><path fill-rule="evenodd" clip-rule="evenodd" d="M16 48.4c0 3.53 2.872 6.4 6.402 6.4 3.529 0 6.398-2.87 6.398-6.4 0-3.53-2.87-6.4-6.398-6.4A6.408 6.408 0 0 0 16 48.4zm3.2 0c0-1.764 1.439-3.2 3.202-3.2a3.204 3.204 0 0 1 3.198 3.2c0 1.764-1.436 3.2-3.198 3.2a3.207 3.207 0 0 1-3.202-3.2zm28.802 6.4a6.408 6.408 0 0 1-6.402-6.4c0-3.53 2.872-6.4 6.402-6.4 3.529 0 6.398 2.87 6.398 6.4 0 3.53-2.87 6.4-6.398 6.4zM44.8 48.4c0-1.764 1.439-3.2 3.202-3.2a3.204 3.204 0 0 1 3.198 3.2c0 1.764-1.436 3.2-3.198 3.2a3.207 3.207 0 0 1-3.202-3.2zm28.802 6.4a6.408 6.408 0 0 1-6.402-6.4c0-3.53 2.872-6.4 6.402-6.4C77.13 42 80 44.87 80 48.4c0 3.53-2.87 6.4-6.398 6.4zM70.4 48.4c0-1.764 1.439-3.2 3.202-3.2a3.204 3.204 0 0 1 3.198 3.2c0 1.764-1.436 3.2-3.198 3.2a3.207 3.207 0 0 1-3.202-3.2z" fill="#2D3C4D"/></svg><svg width="96" height="96" fill="none" viewBox="0 0 96 96" id="445" x="2112" xmlns="http://www.w3.org/2000/svg"><path fill-rule="evenodd" clip-rule="evenodd" d="M23.166 20.903a4.91 4.91 0 0 0 4.905 4.906 1.332 1.332 0 1 0 0-2.666 2.246 2.246 0 0 1-2.242-2.242 2.244 2.244 0 0 1 2.242-2.24h5.874a1.332 1.332 0 0 0 .906 1.55 1.329 1.329 0 0 0 1.67-.874l.503-1.608A1.333 1.333 0 0 0 35.754 16H28.07a4.91 4.91 0 0 0-4.905 4.903zm9.115 3.06l-1.985 6.329a11.7 11.7 0 0 0-2.257-.219C21.4 30.073 16 35.643 16 42.487 16 49.332 21.403 54.9 28.039 54.9s12.039-5.57 12.039-12.414c0-5.089-2.985-9.473-7.245-11.387l1.412-4.502 7.34 6.024c.245.202.546.3.844.3.384 0 .767-.164 1.03-.486a1.334 1.334 0 0 0-.183-1.875l-5.9-4.843h12.483a1.332 1.332 0 0 0 0-2.663H33.81a1.331 1.331 0 0 0-1.53.908zm28.243 12.622l-2.38 4.282c4.12.892 7.223 4.665 7.223 9.173a9.59 9.59 0 0 1-1.41 5.02c-.31.499-.448.962-.448 1.439 0 1.417 1.094 2.572 2.439 2.572h7.56v-5.867c0-.735.596-1.331 1.331-1.331h3.83a1.332 1.332 0 0 1 0 2.663H76.17v5.867a1.333 1.333 0 0 1-1.334 1.332h-8.892c-2.814 0-5.102-2.35-5.102-5.236 0-.96.277-1.923.807-2.78a6.921 6.921 0 0 0 1.055-3.679c0-3.527-2.624-6.427-5.943-6.69l-4.768 8.577c.062 4.706 1.397 8.336 3.968 10.79 3.973 3.79 9.664 3.567 9.733 3.561l12.968-.002a1.332 1.332 0 0 1 0 2.663H65.725c-.055.002-.17.006-.331.006-1.483 0-7.038-.285-11.245-4.278-2.3-2.187-3.786-5.079-4.438-8.633l-2.708 4.87c2.465 1.946 4.057 5.012 4.057 8.453C51.06 75.225 46.429 80 40.733 80s-10.327-4.775-10.327-10.643c0-5.87 4.631-10.645 10.327-10.645 1.412 0 2.759.293 3.986.824L49.463 51c.02-.043.044-.085.07-.125l7.94-14.29H55.35c-.512 0-.978-.293-1.201-.754-.426-.89-1.116-1.608-2.053-2.133-.339-.19-.7-.338-1.074-.442v4.432h.437a1.332 1.332 0 0 1 0 2.663h-1.77a1.332 1.332 0 0 1-1.327-1.456 1.371 1.371 0 0 1-.005-.123v-7.029c0-.735.596-1.332 1.331-1.332 1.3 0 2.583.333 3.71.964 1.137.64 2.066 1.508 2.73 2.547h9.708a1.332 1.332 0 0 1 0 2.663h-5.312zm14.313 10.744h3.829a1.332 1.332 0 0 0 0-2.663h-3.83a1.332 1.332 0 0 0 0 2.663zM40.733 61.375c-4.226 0-7.664 3.582-7.664 7.982s3.438 7.98 7.664 7.98c4.226 0 7.664-3.58 7.664-7.98s-3.438-7.982-7.664-7.982zM28.039 32.736c-5.169 0-9.376 4.376-9.376 9.75 0 5.376 4.205 9.751 9.376 9.751 5.171 0 9.376-4.376 9.376-9.75 0-5.375-4.205-9.75-9.376-9.75z" fill="#2D3C4D"/></svg><svg width="96" height="96" fill="none" viewBox="0 0 96 96" id="48" x="2208" xmlns="http://www.w3.org/2000/svg"><path fill-rule="evenodd" clip-rule="evenodd" d="M64.065 18.769h2.654v-1.382a1.329 1.329 0 0 1 2.656 0v1.382h2.656v-1.382a1.329 1.329 0 0 1 2.656 0v1.382h3.985c.733 0 1.328.595 1.328 1.328v29.114c0 .733-.595 1.328-1.328 1.328h-21.25a1.329 1.329 0 0 1-1.329-1.328V20.097c0-.733.595-1.328 1.328-1.328h3.988v-1.44a1.329 1.329 0 0 1 2.656 0v1.44zM26.17 34.349c0 7.541 4.505 13.676 10.046 13.676 5.541 0 10.049-6.135 10.049-13.675 0-6.622-3.567-10.27-10.049-10.27-6.481 0-10.049 3.646-10.046 10.27zm-4.598 25.516c0-1.277.028-2.548.084-3.803-.833 1.283-1.579 2.953-2.11 5.127-.922 3.77-1.13 7.875-.598 11.874a1.334 1.334 0 0 1-1.145 1.493c-.69.088-1.392-.412-1.493-1.145-.574-4.32-.348-8.766.653-12.855C19.75 49.171 27.87 49.12 28.23 49.163A1.325 1.325 0 0 1 29.53 50.6v8.022h13.364v-8.006c0-.205.048-.407.138-.59.22-.446.733-.858 1.233-.866.404-.034 8.593.01 11.38 11.393.89 3.638 1.022 8.123.385 12.967a1.33 1.33 0 0 1-2.638-.348c.597-4.522.483-8.668-.327-11.986-.566-2.314-1.381-4.057-2.289-5.37.063 1.335.095 2.68.095 4.025 0 7.257-1.464 14.417-2.69 19.147a1.327 1.327 0 0 1-1.621.951 1.33 1.33 0 0 1-.951-1.62c1.19-4.579 2.606-11.5 2.606-18.478a81.31 81.31 0 0 0-.284-6.81A8.18 8.18 0 0 0 45.55 52v7.95c0 .733-.596 1.328-1.329 1.328h-16.02a1.329 1.329 0 0 1-1.328-1.329v-7.923a8.067 8.067 0 0 0-2.367 1.083 80.584 80.584 0 0 0-.279 6.755c0 5.293.917 11.503 2.72 18.453a1.333 1.333 0 0 1-1.285 1.664 1.327 1.327 0 0 1-1.286-.994c-1.86-7.169-2.805-13.604-2.805-19.123zm14.644-33.128c-5.041 0-7.39 2.42-7.39 7.613 0 6.076 3.316 11.018 7.39 11.018 4.075 0 7.393-4.942 7.393-11.018 0-5.195-2.351-7.613-7.393-7.613zm30.503-5.311h-2.654v2.654a1.329 1.329 0 0 1-2.656 0v-2.654h-2.66v26.456h18.595V21.426h-2.657v2.654a1.329 1.329 0 0 1-2.656 0v-2.654h-2.656v2.654a1.329 1.329 0 0 1-2.656 0v-2.654zm1.267 18.652h.02c.442 0 .856-.22 1.098-.587l5.352-7.915a1.326 1.326 0 0 0-.356-1.844 1.331 1.331 0 0 0-1.843.356l-4.216 6.236-1.418-2.243a1.327 1.327 0 1 0-2.245 1.422l2.505 3.959c.242.377.656.61 1.103.616z" fill="#2D3C4D"/></svg><svg width="96" height="96" fill="none" viewBox="0 0 96 96" id="504" x="2304" xmlns="http://www.w3.org/2000/svg"><path fill-rule="evenodd" clip-rule="evenodd" d="M78.672 31.898H60.15a1.33 1.33 0 0 1-1.234-1.822l5.252-13.238A1.33 1.33 0 0 1 65.402 16h8.018a1.33 1.33 0 0 1 1.234.838l5.252 13.238a1.33 1.33 0 0 1-1.234 1.821zM48.26 74.495H32.277v4.06a1.323 1.323 0 0 1-1.325 1.33H20.337a1.329 1.329 0 0 1-1.327-1.33V64.982C17.136 63.48 16 61.068 16 58.516c0-4.238 3.042-7.72 6.877-8.004V43.61c0-4.9 3.572-8.886 7.962-8.886H49.49c4.39 0 7.96 3.986 7.96 8.886v6.533c3.915.19 7.05 3.713 7.05 8.017 0 2.555-1.14 4.964-3.01 6.466v13.93c.002.736-.59 1.33-1.325 1.33h-10.58a1.329 1.329 0 0 1-1.327-1.33v-4.06zm2.654 0v2.73h7.925v-13.28c0-.453.23-.873.608-1.12 1.48-.952 2.4-2.742 2.4-4.666 0-2.957-2.122-5.366-4.728-5.366-2.259 0-4.21 1.824-4.64 4.337a1.33 1.33 0 0 1-1.534 1.084 1.33 1.33 0 0 1-1.082-1.537c.502-2.93 2.44-5.239 4.934-6.137V43.61c0-3.433-2.379-6.227-5.306-6.227H30.84c-2.928 0-5.309 2.794-5.309 6.227v7.234c2.53.843 4.53 3.132 5.08 6.05a1.33 1.33 0 0 1-1.056 1.553 1.323 1.323 0 0 1-1.55-1.059c-.462-2.454-2.408-4.235-4.624-4.235-2.606 0-4.727 2.403-4.727 5.363 0 1.925.921 3.712 2.4 4.666.379.247.607.667.607 1.12v12.924h7.963v-2.73h-1.335a1.329 1.329 0 0 1 0-2.66h23.898a1.329 1.329 0 0 1 0 2.66h-1.274zm-22.627-7.977h23.816c.735 0 1.327-.596 1.327-1.33 0-.733-.595-1.329-1.327-1.329H28.286a1.329 1.329 0 0 0 0 2.659zm48.43-37.28h-14.61l4.195-10.58h6.219l4.196 10.58zm-.642 42.542h-6.662a1.329 1.329 0 0 1-1.327-1.33V65.28c0-.734.595-1.33 1.327-1.33.733 0 1.327.596 1.327 1.33v3.842h5.335a1.329 1.329 0 0 1 0 2.659zm-7.99-11.853c0 .733.596 1.33 1.328 1.33.733 0 1.327-.597 1.327-1.33V36.053c0-.733-.594-1.33-1.327-1.33s-1.327.596-1.327 1.33v23.875zm-31.934 1.33a1.329 1.329 0 0 1-1.327-1.33v-16.01c0-.733.595-1.329 1.327-1.329.733 0 1.327.596 1.327 1.33v16.009c0 .733-.594 1.33-1.327 1.33zm6.691-1.33c0 .733.595 1.33 1.327 1.33.733 0 1.328-.597 1.328-1.33v-16.01a1.329 1.329 0 0 0-2.654 0v16.01z" fill="#2D3C4D"/></svg><svg width="96" height="96" fill="none" viewBox="0 0 96 96" id="537" x="2400" xmlns="http://www.w3.org/2000/svg"><path fill-rule="evenodd" clip-rule="evenodd" d="M70.662 80H25.338A1.337 1.337 0 0 1 24 78.665v-61.33c0-.737.6-1.335 1.338-1.335h45.324c.739 0 1.338.598 1.338 1.335v61.33c0 .74-.6 1.335-1.338 1.335zM26.676 29.29V77.33h42.648V18.671H26.676v7.949h39.493c.739 0 1.338.598 1.338 1.335 0 .738-.6 1.336-1.338 1.336H26.676zm10.773 23.957c0 5.906 4.814 10.71 10.73 10.71 5.917 0 10.73-4.804 10.73-10.71 0-5.905-4.813-10.71-10.73-10.71-5.916 0-10.73 4.805-10.73 10.71zm10.73-8.04c-4.439 0-8.054 3.609-8.054 8.04 0 4.431 3.615 8.04 8.054 8.04 4.44 0 8.055-3.609 8.055-8.04 0-4.431-3.613-8.04-8.055-8.04zm-17.348 8.04c0 9.549 7.782 17.316 17.348 17.316 9.567 0 17.345-7.767 17.345-17.316S57.743 35.931 48.18 35.931c-9.566 0-17.348 7.767-17.348 17.316zM48.18 38.6c-8.089 0-14.672 6.571-14.672 14.646 0 8.074 6.583 14.645 14.672 14.645 8.09 0 14.67-6.571 14.67-14.645 0-8.075-6.578-14.646-14.67-14.646zm13.6-15.019c.243.24.59.401.938.401s.696-.16.961-.4c.244-.268.377-.615.377-.936 0-.347-.134-.694-.401-.964-.482-.505-1.392-.505-1.9.03-.24.24-.375.587-.375.934 0 .321.134.668.4.935zm-4.547.401c-.35 0-.699-.16-.94-.4a1.302 1.302 0 0 1-.398-.936c0-.347.16-.694.399-.961.508-.505 1.394-.48 1.9 0 .24.27.377.59.377.961 0 .348-.137.695-.378.935-.264.24-.612.401-.96.401zm-23.866-.008h5.271c.739 0 1.338-.598 1.338-1.335 0-.738-.6-1.336-1.338-1.336h-5.271c-.739 0-1.338.598-1.338 1.335 0 .738.599 1.336 1.338 1.336z" fill="#2D3C4D"/></svg><svg width="96" height="96" fill="none" viewBox="0 0 96 96" id="565" x="2496" xmlns="http://www.w3.org/2000/svg"><path fill-rule="evenodd" clip-rule="evenodd" d="M17.333 45.35H32.02v6.607a1.333 1.333 0 0 0 2.667 0V45.35h14.69a1.333 1.333 0 0 0 .003-2.665h-30.71v-7.994h10.648a1.334 1.334 0 0 0 0-2.665H18.67V29.89c0-6.188 5.123-11.224 11.42-11.224h1.951v14.694c0 .735.598 1.332 1.334 1.332h2.61a1.333 1.333 0 0 0 0-2.665h-1.28V17.332c0-.735-.597-1.332-1.333-1.332h-3.285C22.317 16 16 22.23 16 29.89v14.128c0 .736.597 1.332 1.333 1.332zM66.14 28.298h.01c2.14 0 3.88 1.82 3.88 4.061 0 .89-.262 1.73-.838 2.559-.083.146-.797 1.47-.797 2.867 0 .805.196 1.565.544 2.236h-5.599a4.84 4.84 0 0 0 .545-2.236c0-1.396-.712-2.72-.875-2.99a4.194 4.194 0 0 1-.76-2.436c0-2.238 1.739-4.06 3.88-4.06h.01zm8.938 11.723h-1.752c-1.251 0-2.267-1.002-2.267-2.236 0-.602.333-1.34.384-1.45a6.828 6.828 0 0 0 1.253-3.976c0-3.706-2.936-6.726-6.547-6.726h-.019c-3.608 0-6.547 3.017-6.547 6.726 0 1.447.435 2.822 1.174 3.849.128.237.461.975.461 1.577 0 1.234-1.016 2.236-2.267 2.236h-1.867c-.736 0-1.333.597-1.333 1.332v7.939c0 .072.006.143.017.212a8.56 8.56 0 0 0-3.665 7.02v22.193a1.333 1.333 0 0 0 2.667 0V56.524c0-3.254 2.648-5.9 5.904-5.9H71.43a5.908 5.908 0 0 1 5.904 5.9v18.337a1.333 1.333 0 0 0 2.667 0V56.524c0-2.879-1.428-5.43-3.613-6.983a1.34 1.34 0 0 0 .023-.25v-7.938c0-.735-.597-1.332-1.333-1.332zm-52.37 21.49c-3.656 0-6.632-3.055-6.632-6.815 0-3.76 2.976-6.817 6.632-6.817 3.66 0 6.635 3.057 6.635 6.817 0 3.76-2.973 6.814-6.635 6.814zm0-10.964c-2.187 0-3.965 1.863-3.965 4.152s1.778 4.149 3.965 4.149 3.969-1.86 3.969-4.15c0-2.288-1.78-4.151-3.969-4.151zm18.951-15.858h6.403v4.026a1.333 1.333 0 0 0 2.667 0v-5.359c0-.735-.597-1.332-1.333-1.332h-5.026l8.042-7.904 1.907-1.922a1.338 1.338 0 0 0-.008-1.886 1.343 1.343 0 0 0-1.888.008l-16.06 15.837a1.333 1.333 0 1 0 1.87 1.9l3.426-3.369zm32.085 13.27H58.417v-5.273h15.326v5.273zm-3.12 13.325h-2.581a1.334 1.334 0 0 1 0-2.665h2.581a1.333 1.333 0 1 1 0 2.665zm-2.581 5.385h2.581a1.332 1.332 0 1 0 0-2.665h-2.581a1.333 1.333 0 1 0 0 2.665zM70.623 72h-2.581a1.334 1.334 0 0 1 0-2.665h2.581a1.333 1.333 0 1 1 0 2.665zM37.41 54.696c0 3.76 2.976 6.814 6.632 6.814a6.55 6.55 0 0 0 5.049-2.39 1.333 1.333 0 0 0-2.05-1.703 3.884 3.884 0 0 1-2.996 1.428c-2.187 0-3.966-1.86-3.966-4.149 0-2.289 1.78-4.152 3.966-4.152a3.86 3.86 0 0 1 2.859 1.271 1.328 1.328 0 0 0 1.883.075c.541-.498.576-1.34.074-1.881-1.266-1.375-2.981-2.13-4.819-2.13-3.656 0-6.632 3.057-6.632 6.817z" fill="#2D3C4D"/></svg><svg width="96" height="96" fill="none" viewBox="0 0 96 96" id="621" x="2592" xmlns="http://www.w3.org/2000/svg"><path fill-rule="evenodd" clip-rule="evenodd" d="M26.369 45.928c.08.143 1.082 1.955 1.534 4.494H33.3a1.332 1.332 0 0 1 0 2.663h-5.182c-.038 1.871-.5 3.917-1.776 5.887l-.022.026c-.479.583-7.658 9.317-7.658 19.656a1.332 1.332 0 0 1-2.662 0c0-11.566 7.874-20.88 8.21-21.269 2.489-3.855.66-8.427.029-9.761l-4.776-2.016a1.336 1.336 0 0 1-.806-1.368l.391-3.693c.373-3.313 2.729-5.48 2.83-5.57 1.107-1.143 2.529-2.157 4.285-3.044 1.83-1 3.773-1.573 5.902-1.738v-1.156c0-2.042 1.11-3.92 2.9-4.905.923-.615 1.423-1.539 1.423-2.537a2.938 2.938 0 0 0-2.933-2.934 2.937 2.937 0 0 0-2.931 2.934 1.332 1.332 0 0 1-2.662 0A5.6 5.6 0 0 1 33.455 16a5.6 5.6 0 0 1 5.595 5.597c0 1.909-.955 3.666-2.56 4.702l-.044.03c-.065.048-.179.13-.199.14-.94.514-1.52 1.5-1.52 2.57V30.2c2.057.178 4.071.765 5.891 1.727.349.183.6.511.682.9.053.242.042.53-.043.764-1.565 4.348-4.184 7.314-7.379 8.36a1.362 1.362 0 0 1-.413.064h-.002a1.754 1.754 0 0 0-.221-.021c-.105-.007-.214-.014-.282-.034-1.478-.434-2.94-1.436-4.233-2.895-1.033-1.163-1.92-2.548-2.609-4.06a12.157 12.157 0 0 0-2.387 1.885c-.075.07-1.773 1.661-2.032 3.94l-.287 2.703 4.315 1.821c.271.115.498.317.642.573zm4.35-8.624c-.89-1.002-1.654-2.213-2.242-3.534 1.512-.655 3.104-.96 4.922-.958 1.69 0 3.373.335 4.925.98-1.212 2.76-2.963 4.726-4.933 5.511-.897-.346-1.816-1.03-2.673-2zm17.25 39.886c-.661 0-1.233-.493-1.319-1.167a40.04 40.04 0 0 0-.652-3.682c-2.09-9.218-5.208-13.145-5.285-13.242l-.002-.002c-3.98-6.121-.633-12.836-.49-13.121a1.32 1.32 0 0 1 .685-.626l4.488-1.83-.285-2.696c-.181-1.43-1.299-3.209-2-3.88a1.335 1.335 0 0 1-.042-1.882 1.334 1.334 0 0 1 1.882-.043c.93.89 2.505 3.163 2.803 5.493l.394 3.72a1.334 1.334 0 0 1-.822 1.374l-4.92 2.005c-.575 1.398-2.105 5.972.448 9.907.05.045 3.476 4.234 5.739 14.232.3 1.331.538 2.654.7 3.938a1.336 1.336 0 0 1-1.155 1.488.895.895 0 0 1-.168.014zm10.626-59.856v7.578a18.065 18.065 0 0 0-1.265 2.705c-.822 2.189-1.256 7.061 2.484 10.757-1.243 2.258-3.828 8.246-3.828 19.038v5.099c0 .734.596 1.33 1.331 1.33h18.602c.735 0 1.334-.593 1.334-1.328 0-.735-.597-1.331-1.331-1.331H58.65v-3.768c0-12.913 3.91-18.446 3.947-18.497a1.331 1.331 0 0 0-.236-1.832c-4.324-3.472-2.612-8.331-2.53-8.555.002-.01.239-.67.66-1.518 3.073 1.54 6.1 3.747 6.1 4.924a1.332 1.332 0 0 0 2.662 0c0-1.177 3.027-3.385 6.101-4.925.424.852.663 1.515.67 1.538.075.205 1.784 5.064-2.539 8.536a1.338 1.338 0 0 0-.226 1.843c.04.053 4.078 5.578 4.078 18.484A1.332 1.332 0 1 0 80 57.409c0-10.792-2.667-16.785-3.953-19.048 3.727-3.693 3.298-8.558 2.484-10.72a18.24 18.24 0 0 0-1.28-2.735v-7.572a1.332 1.332 0 0 0-2.663 0v7.085c-1.794.855-4.898 2.527-6.665 4.561-1.768-2.034-4.872-3.706-6.666-4.56v-7.086a1.332 1.332 0 0 0-2.662 0z" fill="#2D3C4D"/></svg><svg width="96" height="96" fill="none" viewBox="0 0 96 96" id="678" x="2688" xmlns="http://www.w3.org/2000/svg"><path fill-rule="evenodd" clip-rule="evenodd" d="M26.323 33.078a1.31 1.31 0 0 1-1.108-.606c-.4-.615-.225-1.44.386-1.838l8.188-5.359v-4.533c0-.551.336-1.043.846-1.243l8.788-3.41a1.318 1.318 0 0 1 1.709.763 1.33 1.33 0 0 1-.756 1.719l-7.942 3.08v4.345c0 .45-.225.87-.603 1.115l-8.789 5.75c-.222.146-.47.218-.72.218zm22.086 1.645c-3.655 0-6.628-2.993-6.628-6.67s2.975-6.668 6.628-6.668c3.652 0 6.63 2.99 6.63 6.668 0 3.677-2.978 6.67-6.63 6.67zm0-10.677c-2.198 0-3.983 1.799-3.983 4.007 0 2.21 1.788 4.01 3.983 4.01 2.197 0 3.985-1.8 3.985-4.01-.002-2.209-1.788-4.007-3.985-4.007zm-6.79 49.574c0 3.517 2.995 6.38 6.676 6.38 3.679 0 6.675-2.863 6.675-6.38v-7.787l4.512 2.607a6.682 6.682 0 0 0 3.372.934c1.73 0 3.668-.74 5.155-3.11l2.29-3.656c1.013-1.612 1.304-3.18.865-4.656-.685-2.315-2.899-3.387-3.034-3.443l-7.894-4.61V30.885c0-.735-.593-1.33-1.322-1.33-.73 0-1.323.595-1.323 1.33v29.1c0 .735.593 1.331 1.322 1.331.733 0 1.323-.596 1.323-1.33v-7.008l6.675 3.892c.013.005 1.378.665 1.722 1.857.203.705.013 1.533-.572 2.464l-2.287 3.653c-1.843 2.937-4.427 1.607-4.946 1.303l-5.858-3.383V44.588c0-.138-.02-.27-.06-.396-.185-3.555-3.093-6.391-6.641-6.391-3.669 0-6.652 3.03-6.652 6.752v2.129c0 .028.001.057.003.085v16.085l-5.74 3.316c-.5.292-3.086 1.617-4.924-1.317l-2.29-3.653c-.582-.931-.775-1.759-.571-2.464.34-1.17 1.66-1.829 1.82-1.909l.007-.004 6.512-3.763v6.927c0 .734.592 1.33 1.322 1.33.732 0 1.322-.596 1.322-1.33v-9.156a1.358 1.358 0 0 0 0-.143V30.884c0-.735-.592-1.33-1.322-1.33-.73 0-1.322.595-1.322 1.33v19.103l-7.72 4.466c-.249.115-2.463 1.187-3.15 3.502-.44 1.476-.148 3.043.864 4.656l2.29 3.653c1.487 2.376 3.431 3.112 5.16 3.112a6.713 6.713 0 0 0 3.34-.912l4.402-2.542v7.698zm2.64-29.143a1.326 1.326 0 0 0-1.317-1.22c-.73 0-1.322.597-1.322 1.331v2.179a1.326 1.326 0 0 0 1.32 1.245h1.324V73.62c0 2.051 1.81 3.72 4.031 3.72 2.224 0 4.03-1.669 4.03-3.72V48.012h1.24c.723 0 1.313-.585 1.323-1.309l.032-2.15c0-.12-.003-.241-.01-.36a1.325 1.325 0 0 0-1.262-.935c-.73 0-1.323.596-1.323 1.33v3.424h-8.06v-2.66h7.994l.014-.82c0-2.235-1.799-4.07-4.007-4.07-2.183 0-3.966 1.794-4.006 4.015zm0 0c.004.036.005.074.005.111v.764h-.005v-.798-.077zm25.368-11.614a1.3 1.3 0 0 0 .72.215c.433 0 .857-.212 1.105-.603.4-.615.225-1.44-.386-1.839l-8.188-5.358v-4.534c0-.55-.336-1.043-.846-1.242l-8.789-3.411a1.321 1.321 0 0 0-1.708.764 1.333 1.333 0 0 0 .759 1.718l7.942 3.081V26c0 .45.227.87.603 1.115l8.788 5.749z" fill="#2D3C4D"/></svg><svg width="96" height="96" fill="none" viewBox="0 0 96 96" id="728" x="2784" xmlns="http://www.w3.org/2000/svg"><path fill-rule="evenodd" clip-rule="evenodd" d="M59.976 61.416h5.338c.737 0 1.335-.593 1.335-1.33V45.874c3.716-.838 6.111-3.083 7.228-5.183.625.751 1.006 1.6 1.161 2.56.585 3.653-2.362 7.643-2.423 7.725-1.087 1.573-1.637 3.274-1.637 5.05 0 2.608 1.25 5.144 3.526 7.16.032.031.062.06.096.09 1.244 1.078 2.73 2.864 2.73 5.262 0 4.86-6.103 8.81-13.606 8.81h-1.957c-7.503 0-13.607-3.953-13.607-8.81 0-2.401 1.484-4.187 2.733-5.262.038-.032.072-.067.107-.104 2.266-2.012 3.515-4.546 3.515-7.15 0-2.634-1.27-5.182-3.584-7.21a1.37 1.37 0 0 0-.11-.104c-1.246-1.075-2.736-2.858-2.736-5.262 0-1.796.85-3.521 2.424-4.988a11.54 11.54 0 0 0 4.682 5.88 11.705 11.705 0 0 0 3.45 1.495v14.251c0 .735.599 1.331 1.335 1.331zm-1.334-18.355V17.33c0-.735.598-1.331 1.334-1.331.737 0 1.335.596 1.335 1.33v41.424h2.669V21.41c0-.735.598-1.331 1.334-1.331.737 0 1.335.596 1.335 1.33v21.718c3.455-1.02 5.171-3.636 5.288-4.896.045-.47.339-.883.768-1.083a1.344 1.344 0 0 1 1.327.12c2.058 1.442 3.283 3.319 3.643 5.579.756 4.775-2.744 9.486-2.896 9.688-.74 1.078-1.134 2.27-1.134 3.495 0 2.387 1.47 4.165 2.706 5.238.032.027.062.056.091.085 2.296 2.023 3.558 4.57 3.558 7.19C79.995 74.852 72.695 80 63.718 80h-1.956c-8.974 0-16.276-5.148-16.276-11.472 0-2.614 1.26-5.158 3.547-7.176a.891.891 0 0 1 .101-.098c1.236-1.073 2.71-2.85 2.71-5.238 0-2.494-1.594-4.323-2.928-5.422a1.564 1.564 0 0 1-.177-.176c-2.148-1.983-3.325-4.445-3.325-6.976 0-3.24 1.833-6.223 5.164-8.408a1.34 1.34 0 0 1 1.279-.102c.416.187.71.575.774 1.025.36 2.505 1.818 4.74 3.998 6.138a9.112 9.112 0 0 0 2.013.965zm10.676 27.668a1.35 1.35 0 0 1-.937-.375 1.34 1.34 0 0 1-.397-.956c0-.348.133-.694.397-.934.454-.479 1.364-.503 1.869 0 .27.24.4.586.4.934 0 .347-.133.666-.376.932-.288.264-.609.4-.956.4zm-10.676-4.072h8.007c.737 0 1.335-.596 1.335-1.33 0-.735-.598-1.332-1.335-1.332h-8.007c-.737 0-1.335.597-1.335 1.331 0 .735.598 1.331 1.335 1.331zm-20.019-5.24H17.335A1.333 1.333 0 0 1 16 60.084V22.942c0-.735.598-1.331 1.335-1.331h21.288c.737 0 1.335.596 1.335 1.33V54.68c0 .735-.598 1.331-1.335 1.331a1.333 1.333 0 0 1-1.334-1.33V24.272h-18.62v34.481h19.954c.737 0 1.335.597 1.335 1.331 0 .735-.598 1.331-1.335 1.331zm-17.277-13.33c0 3.649 2.979 6.62 6.641 6.62 3.66 0 6.638-2.971 6.638-6.62 0-3.652-2.979-6.623-6.638-6.623-3.662 0-6.64 2.97-6.64 6.623zm6.641-3.964a3.972 3.972 0 0 0-3.972 3.96c0 2.183 1.783 3.959 3.972 3.959a3.968 3.968 0 0 0 3.969-3.958 3.97 3.97 0 0 0-3.969-3.96zm-5.402-10.737c0 2.917 2.38 5.294 5.309 5.294 2.93 0 5.314-2.374 5.311-5.294 0-2.92-2.38-5.297-5.311-5.297-2.926 0-5.31 2.375-5.31 5.297zm5.309-2.635a2.64 2.64 0 0 0-2.64 2.635 2.637 2.637 0 0 0 2.64 2.633 2.64 2.64 0 0 0 2.642-2.633 2.641 2.641 0 0 0-2.642-2.635zm-.854 18.286c.266.24.587.372.934.372.37 0 .694-.133.958-.399.24-.24.373-.588.373-.934 0-.346-.13-.666-.4-.956-.504-.479-1.305-.505-1.895.027a1.35 1.35 0 0 0-.347.931c0 .346.134.693.377.959z" fill="#2D3C4D"/></svg><svg width="96" height="96" fill="none" viewBox="0 0 96 96" id="784" x="2880" xmlns="http://www.w3.org/2000/svg"><path fill-rule="evenodd" clip-rule="evenodd" d="M70.625 34.727h8.043A1.33 1.33 0 0 0 80 33.397V17.33c0-.734-.597-1.33-1.332-1.33h-8.043c-.735 0-1.331.596-1.331 1.33v16.067c0 .734.596 1.33 1.331 1.33zM26.703 26.81h38.49a1.331 1.331 0 1 0 0-2.661h-38.49v-6.768c0-.735-.596-1.33-1.331-1.33h-8.04c-.735 0-1.332.596-1.332 1.33v16.191c0 .735.597 1.33 1.332 1.33h8.04a1.33 1.33 0 0 0 1.331-1.33V26.81zm13.333 13.382c0 5.9 3.574 10.705 7.963 10.705 4.391 0 7.963-4.802 7.963-10.705 0-5.236-2.829-8.12-7.963-8.12-5.135 0-7.963 2.884-7.963 8.12zm2.663 0c0-3.776 1.635-5.46 5.3-5.46 3.667 0 5.3 1.684 5.3 5.46 0 4.36-2.427 8.045-5.3 8.045-2.874 0-5.3-3.682-5.3-8.045zm29.258-8.126h5.38V18.66h-5.38v13.406zm-14.928 24.8v-.001a1.355 1.355 0 0 0 .915-.187c8.663-5.48 8.668-25.005 8.663-25.835a1.331 1.331 0 0 0-1.332-1.323h-.005a1.333 1.333 0 0 0-1.327 1.336c0 .183-.002 17.698-6.733 23.078a18.136 18.136 0 0 0-3.61-1.718l-.003-.002a1.331 1.331 0 1 0-.823 2.53c.02.006 1.931.634 3.623 1.844a1.336 1.336 0 0 0 .632.277zm-19.854-.658c-7.988-6.043-7.861-24.568-7.85-25.376a1.332 1.332 0 0 1 1.33-1.314h.017a1.33 1.33 0 0 1 1.315 1.346c-.002.18-.122 17.695 6.597 23.069 1.772-1.109 3.484-1.677 3.605-1.718h.004c.7-.224 1.449.156 1.675.853a1.332 1.332 0 0 1-.852 1.676c-.019.006-1.62.535-3.175 1.54-.117 2.079-.269 9.246 2.504 16.613a1.327 1.327 0 0 1-.778 1.713 1.33 1.33 0 0 1-1.712-.774c-2.945-7.818-2.819-15.233-2.68-17.628zM24.04 32.242h-5.377V18.711h5.377v13.531zm45.171 47.825h-.114c-.243 0-.482-.067-.69-.192-.317-.192-7.793-4.76-9.54-10.4-1.307-4.23.618-8.891 4.208-10.176 2.27-.809 4.77-.349 6.15 1.05 1.385-1.398 3.89-1.853 6.152-1.05 3.592 1.285 5.515 5.946 4.205 10.179-1.744 5.646-9.367 10.214-9.692 10.402-.205.123-.439.187-.679.187zm-5.236-18.264c.474-.17.975-.261 1.455-.261.814 0 2.218.247 2.474 1.894a1.341 1.341 0 0 0 1.323 1.125c.655 0 1.215-.478 1.316-1.128.255-1.644 1.66-1.891 2.474-1.891.482 0 .983.093 1.457.26 2.253.807 3.449 4.026 2.562 6.889-1.185 3.83-6.115 7.345-7.878 8.502-1.734-1.16-6.562-4.674-7.747-8.502-.885-2.863.311-6.082 2.564-6.889z" fill="#2D3C4D"/></svg><svg width="96" height="96" fill="none" viewBox="0 0 96 96" id="820" x="2976" xmlns="http://www.w3.org/2000/svg"><path fill-rule="evenodd" clip-rule="evenodd" d="M31.64 66.762h-7.201c-1.347 0-2.566-.536-3.618-1.596-4.746-4.772-4.826-19.499-4.82-21.16v-5.003C16.2 16 19.347 16 20.857 16c3.124 0 4.243 6.159 4.642 10.6h7.695c5.262 0 6.8 4.384 6.88 6.699V44.01c.036.564.797 15.599-4.146 20.829-1.2 1.276-2.643 1.922-4.289 1.922zM54.385 80h19.258c2.028 0 3.629-.61 4.759-1.815 1.705-1.812 1.606-4.229 1.593-4.413v-.654a1.338 1.338 0 0 0-2.672 0l.002.737v.002c.002.064.035 1.535-.868 2.498-.607.642-1.55.968-2.814.968H54.385c-1.253 0-2.194-.32-2.8-.955-.93-.98-.883-2.475-.88-2.593v-.003l-.002-49.156v-.002c-.002-.064-.035-1.536.868-2.498.607-.642 1.55-.969 2.814-.969h19.258c1.253 0 2.194.321 2.8.956.93.98.883 2.474.88 2.592v43.408c0 .738.598 1.338 1.336 1.338.737 0 1.335-.6 1.335-1.338l-.002-43.318c.016-.27.115-2.685-1.59-4.5-1.13-1.202-2.73-1.814-4.76-1.814H54.386c-2.028 0-3.629.612-4.759 1.814-1.705 1.812-1.606 4.23-1.593 4.414l.003 48.987c-.016.27-.115 2.684 1.59 4.5 1.13 1.201 2.73 1.814 4.759 1.814zm8.698-8.268c.24.244.588.377.935.377.345 0 .695-.133.938-.401.264-.241.398-.589.398-.937 0-.348-.13-.696-.398-.94-.508-.505-1.392-.505-1.897 0a1.34 1.34 0 0 0-.377.94c0 .348.13.693.4.961zm10.1-42.443H54.845a1.338 1.338 0 0 1 0-2.676h18.338a1.338 1.338 0 0 1 0 2.676zm-8.369 21.466c4.59.261 7.202 2.73 7.202 6.86 0 .74-.599 1.339-1.336 1.339-.738 0-1.337-.6-1.337-1.338 0-1.041 0-4.208-5.36-4.208s-5.36 3.17-5.36 4.208c0 .738-.598 1.338-1.336 1.338-.738 0-1.336-.6-1.336-1.338 0-4.203 2.701-6.683 7.437-6.873-2.663-.495-4.655-3.617-4.655-7.514 0-3.726 1.966-5.86 5.4-5.86 3.428 0 5.398 2.137 5.398 5.86 0 3.928-2.023 7.069-4.717 7.526zm-.681-10.709c-1.416 0-2.728.389-2.728 3.183 0 2.89 1.437 4.906 2.728 4.906 1.29 0 2.726-2.015 2.726-4.906 0-2.797-1.31-3.182-2.726-3.182zm-30.63 3.775H22.741c-.738 0-1.336-.6-1.336-1.339v-7.25c0-.74.598-1.339 1.336-1.339h10.76c.738 0 1.337.6 1.337 1.338v7.251c0 .739-.599 1.339-1.337 1.339zm-1.337-2.677h-8.088V36.57h8.088v4.574zm-13.491-2.128c.123-13.918 1.387-19.148 2.223-20.23.818.916 1.758 5.105 2.039 9.243.048.7.63 1.247 1.333 1.247h8.93c3.912 0 4.19 3.702 4.21 4.071l.002 10.739c.219 4.022.035 15.261-3.418 18.915-.69.728-1.459 1.084-2.351 1.084H24.44c-.62 0-1.186-.265-1.726-.808-3.359-3.376-4.056-15.048-4.04-19.267v-4.994z" fill="#2D3C4D"/></svg><svg width="96" height="96" fill="none" viewBox="0 0 96 96" id="856" x="3072" xmlns="http://www.w3.org/2000/svg"><path fill-rule="evenodd" clip-rule="evenodd" d="M37.383 19.025a1.333 1.333 0 0 0 2.665.002v-1.695a1.333 1.333 0 0 0-2.665 0v1.693zm26.623 36.934v-7.912H50.933l.681 7.912h12.392zM49.48 45.382h14.526V38.86c0-.355.141-.693.39-.943l10.91-10.88a1.342 1.342 0 0 1 1.888.002 1.339 1.339 0 0 1-.003 1.886l-10.52 10.49v5.968h5.299a1.336 1.336 0 0 1 1.327 1.44l-2.583 31.962a1.329 1.329 0 0 1-1.327 1.225H52.228a1.33 1.33 0 0 1-1.327-1.218L48.153 46.83a1.334 1.334 0 0 1 1.327-1.447zM66.671 55.96v-7.912h3.854l-.638 7.912H66.67zm-14.828 2.665h17.829l-1.51 18.72H53.453l-1.61-18.72zm8 13.78c.24.266.586.4.933.4.346 0 .693-.134.933-.403.266-.24.4-.586.4-.932 0-.347-.131-.69-.4-.96a1.374 1.374 0 0 0-1.893.027c-.24.242-.373.589-.373.935 0 .347.13.666.4.933zm4.528-3.2c-.346 0-.693-.134-.933-.398-.24-.24-.4-.589-.4-.935 0-.346.163-.693.4-.957a1.359 1.359 0 0 1 1.866 0c.266.267.397.61.397.957 0 .346-.128.696-.368.935a1.352 1.352 0 0 1-.962.397zm-25.655-7.955a1.333 1.333 0 0 1-1.333-1.333V58.04a1.333 1.333 0 0 1 2.665 0v1.877c0 .735-.594 1.332-1.332 1.332zM17.333 79.924h29.4a1.331 1.331 0 1 0 0-2.665h-29.4a1.333 1.333 0 0 0 0 2.665zm61.337 0h-3.635a1.333 1.333 0 0 1 0-2.665h3.632a1.333 1.333 0 0 1 .003 2.665zM17.423 39.957h1.693a1.333 1.333 0 0 0 0-2.665h-1.693a1.333 1.333 0 0 0 0 2.665zm6.237 15.056a1.333 1.333 0 0 1-.944-2.273l1.197-1.196a1.333 1.333 0 0 1 1.884 1.884l-1.196 1.196c-.259.259-.6.39-.941.39zM51.506 25.84a1.338 1.338 0 0 0 1.884 0l1.328-1.327a1.333 1.333 0 0 0-1.885-1.885l-1.327 1.328c-.52.52-.52 1.364 0 1.884zm-26.519.389c-.341 0-.682-.13-.943-.39l-1.325-1.326a1.333 1.333 0 0 1 1.884-1.885l1.328 1.328a1.333 1.333 0 0 1-.944 2.273zm-1.463 12.37c0 8.522 6.935 15.459 15.46 15.459 1.187 0 2.365-.136 3.498-.398a1.335 1.335 0 0 0-.602-2.598c-.939.219-1.912.33-2.895.33-7.055 0-12.796-5.737-12.796-12.793 0-7.057 5.741-12.794 12.796-12.794s12.796 5.74 12.796 12.794a1.333 1.333 0 0 0 2.665 0c0-8.522-6.935-15.459-15.461-15.459s-15.461 6.937-15.461 15.459z" fill="#2D3C4D"/></svg><svg width="96" height="96" fill="none" viewBox="0 0 96 96" id="895" x="3168" xmlns="http://www.w3.org/2000/svg"><path fill-rule="evenodd" clip-rule="evenodd" d="M57.333 16H76c2.205 0 4 1.795 4 4v5.333c0 .736-.597 1.334-1.333 1.334H56v14.666a1.334 1.334 0 0 1-2.667 0V20c0-2.205 1.795-4 4-4zm21.334 13.333c-.736 0-1.334.598-1.334 1.334v40c0 .733-.6 1.333-1.333 1.333H62.667a1.334 1.334 0 0 0 0 2.667H76c2.205 0 4-1.795 4-4v-40c0-.736-.597-1.334-1.333-1.334zM20 45.333h34.667c2.205 0 4 1.795 4 4V76c0 2.205-1.795 4-4 4H20c-2.205 0-4-1.795-4-4V60a1.334 1.334 0 0 1 2.667 0v16c0 .733.6 1.333 1.333 1.333h34.667c.733 0 1.333-.6 1.333-1.333V56H17.333A1.334 1.334 0 0 1 16 54.667v-5.334c0-2.205 1.795-4 4-4zm-1.333 4v4H56v-4C56 48.6 55.4 48 54.667 48H20c-.733 0-1.333.6-1.333 1.333zm12.805 21.262l1.141.949.95 1.141a2.668 2.668 0 0 0 2.29.95l1.48-.134 1.48.136a2.664 2.664 0 0 0 2.29-.95l.95-1.14 1.142-.95a2.668 2.668 0 0 0 .949-2.293l-.136-1.48.136-1.48a2.668 2.668 0 0 0-.95-2.293l-1.14-.95-.95-1.141a2.668 2.668 0 0 0-2.29-.95l-1.48.137-1.48-.136a2.664 2.664 0 0 0-2.29.95l-.95 1.14-1.142.95a2.668 2.668 0 0 0-.95 2.293l.137 1.48-.136 1.48a2.659 2.659 0 0 0 .949 2.29zm3.032-6.6L33.176 65.1l.157 1.72-.157 1.723 1.328 1.107 1.107 1.328 1.722-.158 1.723.16 1.107-1.328 1.328-1.106-.158-1.723.158-1.723-1.328-1.106-1.107-1.328-1.723.157-1.722-.157-1.107 1.328zM77.334 24H56v-4c0-.733.6-1.333 1.333-1.333H76c.733 0 1.333.6 1.333 1.333v4zm-12.32 30.947l1.722.157 1.107-1.328 1.328-1.107-.158-1.722.158-1.723-1.328-1.107-1.107-1.328-1.485.136a.496.496 0 0 0-.06.015.332.332 0 0 1-.092.017.104.104 0 0 1-.03-.005.102.102 0 0 0-.029-.005l-.027.002v-.008a1.325 1.325 0 0 1-1.25-1.317c0-1.168 1.25-1.355 1.25-1.355l1.48-.136a2.668 2.668 0 0 1 2.29.95l.95 1.141 1.142.95a2.668 2.668 0 0 1 .949 2.293l-.136 1.48.136 1.48c.08.874-.275 1.73-.95 2.293l-1.14.95-.95 1.14a2.665 2.665 0 0 1-2.29.95l-1.48-.136v-.016a1.326 1.326 0 0 1-1.251-1.317c0-.707.554-1.272 1.25-1.318v-.026z" fill="#2D3C4D"/></svg><svg width="96" height="96" fill="none" viewBox="0 0 96 96" id="91" x="3264" xmlns="http://www.w3.org/2000/svg"><path fill-rule="evenodd" clip-rule="evenodd" d="M73.638 35.685c-.131 0-.258.02-.378.055l-2.868-10.456C69.731 22.071 66.688 16 59.906 16H36.094c-6.782 0-9.825 6.071-10.465 9.199l-2.89 10.542a1.334 1.334 0 0 0-.38-.056c-2.176 0-3.691-1.175-3.691-2.231 0-.739.71-1.488 1.806-1.901a1.333 1.333 0 1 0-.945-2.496c-2.176.824-3.528 2.51-3.528 4.397 0 2.66 2.62 4.762 6.025 4.892l-.01.038c-5.954 3.826-6.01 13.278-6.01 13.686v20.747l-.002.315c-.016 1.354-.046 3.882 1.563 5.505.893.904 2.117 1.363 3.637 1.363h2.78c1.471 0 4.176-.021 5.099-3.898l1.203-4.272.001-.005c5.07.65 10.994.979 17.713.979 6.717 0 12.64-.329 17.707-.98l.002.009 1.19 4.218C67.837 79.98 70.539 80 72.038 80h2.758c1.52 0 2.747-.459 3.64-1.362 1.606-1.624 1.576-4.15 1.56-5.504l-.002-21.061c0-.41-.056-9.863-6.01-13.69l-.01-.038c3.404-.13 6.025-2.232 6.025-4.891 0-1.89-1.355-3.573-3.531-4.397a1.334 1.334 0 0 0-.944 2.496c1.099.413 1.808 1.16 1.808 1.9 0 1.057-1.517 2.232-3.694 2.232zM22.386 70.38c1.608.403 3.355.757 5.238 1.06L26.5 75.433c-.45 1.887-1.142 1.9-2.536 1.9h-2.76c-.793 0-1.36-.186-1.742-.57-.824-.831-.806-2.561-.795-3.599v-.003l.003-21.093c0-.091.066-8.818 5.139-11.658.312-.173.541-.466.635-.81l3.776-13.783c.014-.072 1.544-7.153 7.87-7.153h23.812c6.289 0 7.812 6.865 7.892 7.239l3.752 13.7c.094.343.323.637.635.81 5.075 2.84 5.14 11.57 5.14 11.657v20.747l.002.35c.013 1.034.035 2.767-.79 3.599-.378.384-.949.57-1.744.57h-2.755l-.32-.024c-1.17-.085-1.806-.131-2.235-1.93l-1.11-3.943a62.154 62.154 0 0 0 5.228-1.06 1.337 1.337 0 0 0 .968-1.618 1.338 1.338 0 0 0-1.619-.968c-6.104 1.536-14.73 2.347-24.95 2.347-10.225 0-18.856-.81-24.96-2.347a1.335 1.335 0 0 0-.65 2.586zm13.636-19.097c-.807-2.655-3.222-4.588-6.07-4.588-3.507 0-6.358 2.933-6.358 6.535 0 3.6 2.854 6.533 6.358 6.533 3.242 0 5.924-2.505 6.31-5.729 4.036.655 9.29.718 11.191.718l.481.001h.738c1.88 0 7.041-.065 11.063-.699.396 3.213 3.075 5.709 6.308 5.709 3.507 0 6.358-2.93 6.358-6.533 0-3.602-2.851-6.535-6.358-6.535-2.858 0-5.28 1.946-6.079 4.615-4.306.788-10.768.779-11.828.776v-.002h-.199l-.036.002-.172-.002-.184-.001c-1.841-.015-7.628-.063-11.523-.8zm-9.761 1.95c0-2.133 1.656-3.87 3.691-3.87s3.691 1.737 3.691 3.87-1.656 3.866-3.69 3.866c-2.036 0-3.692-1.733-3.692-3.866zm25.462-12.937H44.25c-7.084-.163-12.084-.622-14.436-.883a1.332 1.332 0 0 1-1.18-1.472 1.34 1.34 0 0 1 1.473-1.178c2.31.256 7.225.709 14.175.866h7.41c6.93-.157 11.873-.61 14.199-.866.72-.072 1.389.445 1.472 1.178.08.73-.448 1.39-1.18 1.472-2.37.261-7.398.723-14.46.883zm10.628 12.937c0-2.133 1.656-3.87 3.692-3.87 2.034 0 3.69 1.737 3.69 3.87s-1.656 3.866-3.69 3.866c-2.036 0-3.692-1.733-3.692-3.866z" fill="#2D3C4D"/></svg><svg width="96" height="96" fill="none" viewBox="0 0 96 96" id="976" x="3360" xmlns="http://www.w3.org/2000/svg"><path fill-rule="evenodd" clip-rule="evenodd" d="M42.677 33.435H21.445c-2.563 0-5.329-1.756-5.329-4.592 0-2.608 2.452-4.898 5.247-4.898h.186C22.076 20.437 24.682 16 30.517 16c4.12 0 6.845 3.018 7.799 5.867a4.855 4.855 0 0 1 1.593-.287c.925 0 2.555.338 3.72 2.437 2.445.394 4.377 2.407 4.377 4.751 0 2.882-2.766 4.667-5.329 4.667zm-12.15 19.972l-.008.012c-7.98-.572-12.92-.203-13.285-.175l-.02.001a1.33 1.33 0 0 0-1.17.985c-.144.544.07 1.12.53 1.439 8.785 6.054 10.535 9.639 12.877 15.455.208.52.71.834 1.237.834a1.328 1.328 0 0 0 1.239-1.827c-2.159-5.359-3.949-9.149-10.695-14.372 8.363-.056 29.617.892 54.158 11.035a1.325 1.325 0 0 0 1.74-.722 1.332 1.332 0 0 0-.722-1.74 150.504 150.504 0 0 0-32.313-9.271l3.213-6.29c4.336 1.652 10.314 4.574 17.24 9.702.24.179.518.264.795.264.405 0 .81-.187 1.074-.54a1.328 1.328 0 0 0-.278-1.863c-7.722-5.717-14.278-8.796-18.876-10.443a1.332 1.332 0 0 0-.297-.105c-4.132-1.451-6.607-1.724-6.817-1.746a1.32 1.32 0 0 0-.943.267c-.174.133-4.266 3.284-8.678 9.1zm10.8 1.213a143.742 143.742 0 0 0-7.635-.936c2.984-3.693 5.69-6.074 6.705-6.92.739.127 2.244.435 4.373 1.116l-3.443 6.74zM18.78 28.846c0-1.151 1.255-2.235 2.582-2.235h1.417c.735 0 1.332-.597 1.332-1.332 0-2.557 1.74-6.613 6.408-6.613 3.565 0 5.451 3.38 5.507 5.27.016.51.32.965.783 1.173a1.338 1.338 0 0 0 1.396-.184c.176-.146.976-.682 1.703-.682.237 0 .973 0 1.623 1.55.207.496.692.818 1.228.818 1.217 0 2.582.924 2.582 2.16 0 1.18-1.404 2.003-2.665 2.003H21.445c-1.287 0-2.664-.775-2.664-1.928zm45.438 21.989c-2.806 0-5.39-2.682-6.152-6.377-.746-3.638.83-6.136 4.324-6.855a7.833 7.833 0 0 1 1.524-.165c1.561 0 4.303.618 5.155 4.762.39 1.89.24 3.795-.42 5.359-.654 1.544-1.778 2.642-3.126 3.072 4.992.053 8.239 2.352 9.152 6.49a1.331 1.331 0 0 1-1.303 1.616c-.61 0-1.164-.424-1.3-1.047-.653-2.959-2.853-4.397-6.73-4.397a1.332 1.332 0 0 1-.671-2.482c-.15.016-.302.024-.453.024zm-1.29-10.62c.357-.074.69-.111.988-.111.933 0 2.063.298 2.545 2.636.274 1.35.178 2.733-.267 3.788-.22.52-.724 1.422-1.64 1.609-1.352.293-3.28-1.322-3.877-4.211-.456-2.214.197-3.29 2.25-3.71zm-25.104 26.03c.24.266.587.4.936.4.346 0 .692-.134.93-.403.263-.24.4-.586.4-.932 0-.346-.134-.69-.4-.959a1.367 1.367 0 0 0-1.866.027 1.266 1.266 0 0 0-.397.935c0 .346.131.692.398.932zM76.49 80.023a3.917 3.917 0 0 1-3.373-1.942l-.719-1.342c-.392-.655-1.654-.703-2.1.061l-.676 1.263a3.927 3.927 0 0 1-3.381 1.96 3.917 3.917 0 0 1-3.373-1.942l-.72-1.342c-.391-.655-1.654-.703-2.1.061l-.66 1.255c-.727 1.235-2.014 1.968-3.386 1.968a3.917 3.917 0 0 1-3.373-1.942l-.72-1.342c-.392-.655-1.657-.703-2.1.061l-.676 1.263a3.927 3.927 0 0 1-3.381 1.96 3.917 3.917 0 0 1-3.373-1.942l-.72-1.342c-.391-.655-1.657-.703-2.1.061l-.676 1.263a3.927 3.927 0 0 1-3.38 1.96 3.917 3.917 0 0 1-3.374-1.942l-.72-1.342c-.39-.655-1.654-.703-2.099.061l-.676 1.263a3.927 3.927 0 0 1-3.382 1.96 3.917 3.917 0 0 1-3.373-1.942l-.719-1.342c-.394-.655-1.657-.703-2.1.061a1.342 1.342 0 0 1-1.822.485 1.337 1.337 0 0 1-.485-1.822 3.916 3.916 0 0 1 3.373-1.944c1.372 0 2.654.732 3.355 1.912l.722 1.353c.4.685 1.657.724 2.105-.027l.67-1.254c.72-1.239 2.01-1.984 3.393-1.984 1.372 0 2.653.732 3.354 1.912l.722 1.353c.402.685 1.66.724 2.105-.027l.671-1.254c.72-1.239 2.01-1.984 3.392-1.984 1.372 0 2.654.732 3.354 1.912l.722 1.353c.403.685 1.66.724 2.105-.027l.672-1.254c.72-1.239 2.009-1.984 3.391-1.984 1.373 0 2.654.732 3.355 1.912l.722 1.353c.4.685 1.657.724 2.105-.027l.655-1.246c.722-1.246 2.014-1.992 3.397-1.992 1.372 0 2.654.732 3.355 1.912l.722 1.353c.402.685 1.66.724 2.105-.027l.67-1.254c.72-1.239 2.01-1.984 3.393-1.984 1.372 0 2.653.732 3.354 1.912l.722 1.353c.402.685 1.66.724 2.105-.027a1.333 1.333 0 0 1 2.297 1.353c-.67 1.18-1.953 1.913-3.325 1.913zM43.154 66.245c.24.266.586.4.935.4a1.323 1.323 0 0 0 1.33-1.335c0-.346-.133-.69-.4-.959a1.367 1.367 0 0 0-1.865.027 1.266 1.266 0 0 0-.397.935c0 .346.13.692.397.932z" fill="#2D3C4D"/></svg></svg>