<svg id="Layer_1" data-name="Layer 1" xmlns="http://www.w3.org/2000/svg" xmlns:xlink="http://www.w3.org/1999/xlink" viewBox="0 0 168.01 96"><defs><style>.cls-1{fill:none;}.cls-2{clip-path:url(#clip-path);}.cls-3{fill:#f7f8f7;}</style><clipPath id="clip-path" transform="translate(0 0)"><rect class="cls-1" width="168.01" height="96"/></clipPath></defs><title>grey_cloud</title><g class="cls-2"><path class="cls-3" d="M134.71,19c-.2-1.16-.75-2-3.39-2.21-.57,0-1.17,0-1.75,0-11.08.07-14.28.16-24.73.17a14.23,14.23,0,0,1-7.23-2.64,9.94,9.94,0,0,1-3-4.24A14.16,14.16,0,0,0,68.18,8.3a22.48,22.48,0,0,0-16-6.73c-12.15,0-22.1,9.79-22.93,22.19a11.7,11.7,0,0,0-9.76,9.44A13.46,13.46,0,0,0,14,32,14.23,14.23,0,0,0,0,46.51,14.27,14.27,0,0,0,13.1,61a24.15,24.15,0,0,0,.37,9.35c1.77,7.88,7.64,13.36,14.95,14.34,1.72,6,7.72,10.74,15.16,11.28a17.2,17.2,0,0,0,14.54-5.78l.22-.08c3.85,2.92,7.84,5.37,12.61,5.83,5.73.56,13.52-2.72,16.92-5.27.87-.65,2.84-.83,5-.85,4.12,0,8.9,0,11.47,0a2.27,2.27,0,0,0,2.37-2.54,2.3,2.3,0,0,0-1.91-2.21,4,4,0,0,0-.74,0H97.79c-2.32-.22-2.89-1.21-3-2-.17-1.72.62-2.81,2.13-2.92.82-.06,1.64,0,2.47,0,3.7,0,38,0,41.75,0a3.37,3.37,0,0,0,2-.62,2.26,2.26,0,0,0,.63-2.4A2.17,2.17,0,0,0,142,75.32a6.16,6.16,0,0,0-1.23,0h-52a7.84,7.84,0,0,1-1.23,0,2.49,2.49,0,0,1-.33-4.74,5.78,5.78,0,0,1,1.71-.2c4.15,0,8.31,0,12.46,0a7,7,0,0,0,1.23-.06,2.22,2.22,0,0,0,1.7-2.11,2.32,2.32,0,0,0-1.46-2.47,4.69,4.69,0,0,0-1.34-.17l-3.82,0a4.14,4.14,0,0,1-1.1-.12,2.47,2.47,0,0,1-.1-4.68,5.33,5.33,0,0,1,1.58-.22c3.66,0,7.32,0,11,0a2.23,2.23,0,0,0,2.5-2.35,2.33,2.33,0,0,0-2.46-2.49c-5.39,0-.85,0-6.24,0a2.52,2.52,0,1,1,0-5l21.23,0a6.23,6.23,0,0,0,.73-.08,2.31,2.31,0,0,0,1.49-2.54,2.26,2.26,0,0,0-1.87-2.1,6.53,6.53,0,0,0-1.23-.07H104c-2.3,0-2.84-.36-3.22-1.59s-.24-3.27,3.29-3.27c4.56,0,2.55,0,3.71,0a5.11,5.11,0,0,0,1.91-.39,2,2,0,0,0,1.19-2,2.23,2.23,0,0,0-1.12-2.17,4.38,4.38,0,0,0-1.89-.45l-1.4,0h-.84c-1.83,0-2.91-.89-2.93-2.39S103.82,31,105.6,31h9.91a6.47,6.47,0,0,0,1.71-.19,2.13,2.13,0,0,0,1.54-2.37,2,2,0,0,0-1.67-2.23,9.35,9.35,0,0,0-2-.19h-6.86l0,0a2.3,2.3,0,0,1-.22-4.48h1.33c9.38,0,13,0,22.35-.07,2,0,3.14-1.28,2.94-2.47m-8.3,51.27a2.07,2.07,0,0,0,2-2.16c.09-1.34-.59-2.45-1.82-2.53H114.79a2.39,2.39,0,0,0,.15,4.68c.49.05,1,0,1.48,0h1.48v0c.9,0,7.6,0,8.51,0m18.38-31.88a2.32,2.32,0,0,0-2.23-2.46c-1.55-.08-23.11-.09-24.66,0a2.48,2.48,0,0,0,.11,4.94c.73.05,1.47,0,2.21,0h0c.78,0,21.55.06,22.33,0a2.38,2.38,0,0,0,2.24-2.47M168,58.23a2.4,2.4,0,0,0-1.61-2.5,5,5,0,0,0-1.46-.16c-3.24,0-38.78,0-42,0a9.24,9.24,0,0,0-1.47,0,2.22,2.22,0,0,0-1.84,1.63,2.56,2.56,0,0,0,.35,2.37,1.91,1.91,0,0,0,1.75.82c2,0,3.94,0,5.9,0h0c2,0,36.32,0,38.33,0A2.17,2.17,0,0,0,168,58.23" transform="translate(0 0)"/></g></svg>