<?xml version="1.0" encoding="utf-8"?>
<!-- Generator: Adobe Illustrator 16.0.0, SVG Export Plug-In . SVG Version: 6.00 Build 0)  -->
<!DOCTYPE svg PUBLIC "-//W3C//DTD SVG 1.1//EN" "http://www.w3.org/Graphics/SVG/1.1/DTD/svg11.dtd">
<svg version="1.1" id="Layer_1" xmlns="http://www.w3.org/2000/svg" xmlns:xlink="http://www.w3.org/1999/xlink" x="0px" y="0px"
	 width="96px" height="96px" viewBox="0 0 96 96" enable-background="new 0 0 96 96" xml:space="preserve">
<g id="Layer_3" display="none">
</g>
<g id="Layer_2">
</g>
<g id="icons">
	<g>
		<path fill="#C5283D" d="M25.125,79.992c-0.484,0-0.965-0.176-1.344-0.52c-0.675-0.611-0.851-1.603-0.428-2.41L46.785,32.33
			c0.352-0.671,1.07-1.091,1.811-1.071c0.758,0.014,1.44,0.456,1.768,1.14l10.469,21.984c0.037,0.047,0.072,0.096,0.105,0.146
			c0.137,0.209,0.229,0.434,0.279,0.664l10.447,21.938c0.384,0.808,0.188,1.771-0.484,2.361s-1.652,0.665-2.402,0.181L52.298,69.079
			c-0.93-0.597-1.198-1.835-0.603-2.765c0.6-0.929,1.837-1.198,2.765-0.601l10.575,6.798L58.4,58.582L26.22,79.665
			C25.887,79.884,25.505,79.992,25.125,79.992z M48.472,37.731L30.47,72.1l26.195-17.162L48.472,37.731z"/>
		<path fill="#C5283D" d="M41.39,61.691c-0.417,0-0.838-0.129-1.198-0.399l-4.066-3.05c-0.884-0.663-1.063-1.917-0.399-2.801
			c0.662-0.883,1.914-1.062,2.8-0.399l4.066,3.05c0.884,0.663,1.062,1.917,0.399,2.801C42.599,61.416,41.998,61.691,41.39,61.691z"
			/>
		<circle fill="#C5283D" cx="48.508" cy="33.258" r="8.133"/>
		<path fill="#C5283D" d="M21.777,48.476c-0.679,0-1.34-0.345-1.716-0.969c-2.651-4.404-4.053-9.503-4.053-14.745
			c0-5.745,1.899-11.267,5.494-15.968c0.669-0.876,1.925-1.047,2.804-0.374c0.877,0.671,1.045,1.926,0.374,2.804
			c-3.057,3.998-4.672,8.68-4.672,13.539c0,4.515,1.203,8.9,3.48,12.682c0.569,0.946,0.264,2.175-0.683,2.745
			C22.484,48.383,22.129,48.476,21.777,48.476z"/>
		<path fill="#C5283D" d="M74.223,48.476c-0.352,0-0.707-0.093-1.029-0.287c-0.945-0.57-1.252-1.799-0.682-2.745
			c2.276-3.781,3.479-8.167,3.479-12.682c0-4.859-1.615-9.54-4.673-13.539c-0.67-0.878-0.502-2.133,0.375-2.804
			c0.879-0.673,2.134-0.502,2.804,0.374c3.595,4.702,5.494,10.224,5.494,15.968c0,5.242-1.401,10.341-4.054,14.745
			C75.562,48.13,74.9,48.476,74.223,48.476z"/>
		<path fill="#C5283D" d="M64.812,41.358c-0.375,0-0.754-0.105-1.092-0.326c-0.925-0.604-1.185-1.843-0.58-2.768
			c1.105-1.694,1.668-3.565,1.668-5.563c0-2.238-0.877-4.395-2.537-6.238c-0.738-0.821-0.672-2.086,0.148-2.825
			c0.821-0.74,2.087-0.672,2.824,0.148c2.331,2.589,3.562,5.672,3.562,8.915c0,2.749-0.802,5.429-2.318,7.751
			C66.105,41.04,65.466,41.358,64.812,41.358z"/>
		<path fill="#C5283D" d="M31.878,41.359c-0.699,0-1.378-0.367-1.745-1.02c-1.259-2.239-1.925-4.778-1.925-7.341
			c0-3.274,1.256-6.534,3.536-9.179c0.722-0.836,1.983-0.929,2.82-0.208c0.837,0.721,0.931,1.984,0.209,2.821
			c-1.679,1.947-2.565,4.217-2.565,6.566c0,1.905,0.475,3.715,1.411,5.381c0.542,0.962,0.2,2.182-0.763,2.723
			C32.546,41.276,32.21,41.359,31.878,41.359z"/>
	</g>
</g>
</svg>
