<svg xmlns="http://www.w3.org/2000/svg" width="22" height="22" viewBox="0 0 22 22">
    <g fill="none" fill-rule="evenodd">
        <path d="M-5-5h32v32H-5z"/>
        <g fill="#116DB4">
            <path d="M19.639 17.32c.542-.517 1.93-2.022 2.016-3.941.058-1.27-.453-2.453-1.517-3.517a.667.667 0 1 0-.943.943c.787.786 1.166 1.63 1.129 2.507-.075 1.747-1.735 3.163-1.75 3.176a.666.666 0 0 0-.23.395c-.011.062-.179 1.073.291 2.433-1.332-.763-2.6-1.54-2.62-1.551a.666.666 0 0 0-.386-.097c-.039.001-3.94.185-5.384-2.333a.667.667 0 0 0-1.157.663c1.652 2.878 5.444 3.018 6.4 3.007.665.404 3.078 1.86 4.548 2.592a.665.665 0 0 0 .817-.179.667.667 0 0 0 0-.836c-1.162-1.446-1.235-2.767-1.214-3.262"/>
            <path d="M8.323 12.312c-.578 0-1.515.571-3.356 1.782.429-1.487.18-2.53-.747-3.112-1.623-1.018-2.553-2.466-2.553-3.971 0-2.947 3.439-5.344 7.666-5.344C13.561 1.667 17 4.064 17 7.01c0 2.946-3.44 5.344-7.667 5.344-.31 0-.624-.014-.93-.04a1.284 1.284 0 0 0-.08-.003m10.01-5.301c0-3.682-4.037-6.678-9-6.678-4.962 0-9 2.996-9 6.678 0 1.974 1.159 3.833 3.178 5.1.555.348.382 1.508-.473 3.183a.712.712 0 0 0 .013.71.72.72 0 0 0 .594.33c.32 0 .595-.165 1.991-1.084.801-.527 2.28-1.5 2.7-1.602.33.026.665.04.997.04 4.963 0 9-2.995 9-6.677"/>
        </g>
    </g>
</svg>
