<?xml version="1.0" encoding="utf-8"?>
<!-- Generator: Adobe Illustrator 17.0.0, SVG Export Plug-In . SVG Version: 6.00 Build 0)  -->
<!DOCTYPE svg PUBLIC "-//W3C//DTD SVG 1.1 Tiny//EN" "http://www.w3.org/Graphics/SVG/1.1/DTD/svg11-tiny.dtd">
<svg version="1.1" baseProfile="tiny" xmlns="http://www.w3.org/2000/svg" xmlns:xlink="http://www.w3.org/1999/xlink" x="0px"
	 y="0px" width="96px" height="96px" viewBox="0 0 96 96" xml:space="preserve">
<g id="Layer_3" display="none">
</g>
<g id="Layer_2">
</g>
<g id="icons">
	<path fill="#2D3C4D" d="M48.001,79.999C47.731,79.999,21,72.899,21,47.201V28c0-1.104,0.896-2,2-2s2,0.896,2,2v19.201
		c0,20.484,19.738,27.671,23.001,28.714C51.264,74.872,71,67.687,71,47.201V28.993c-2.36-1.703-10.433-6.942-22.897-8.966
		c-6.071,0.971-11.791,2.771-17.005,5.351c-0.991,0.491-2.189,0.085-2.68-0.905c-0.49-0.989-0.084-2.19,0.905-2.679
		c5.669-2.807,11.885-4.747,18.476-5.769c0.204-0.032,0.412-0.033,0.617,0.001c16.254,2.555,25.48,10.116,25.865,10.438
		C74.736,26.843,75,27.406,75,28v19.201C75,72.899,48.271,79.999,48.001,79.999z"/>
	<path fill-rule="evenodd" fill="#2D3C4D" d="M52.976,64.321h-7.439H38c0-2.762,2.25-5,5.024-5h7.439H58
		C58,62.083,55.75,64.321,52.976,64.321z M56.267,41.739c1.864,1.863,1.705,5.045-0.356,7.105l-7.388,7.389
		c-2.061,2.059-5.242,2.219-7.105,0.354l5.595-5.596l3.658-3.656l1.865-1.865l-1.688-1.688l-4.997-4.998
		c-1.864-1.863-1.705-5.045,0.355-7.105l5.063,5.062L56.267,41.739z"/>
</g>
</svg>
